<svg xmlns="http://www.w3.org/2000/svg" width="54" height="51" viewBox="0 0 54 51">
  <path fill="#FCFBF8" d="M342.040412,243.019121 C342.389483,242.873699 342.784122,243.014592 342.968767,243.334309 L343.013727,243.425858 L345.695148,249.960364 C345.852627,250.344324 345.672284,250.784147 345.292148,250.942708 C345.19866,250.981656 345.102266,251 345.007363,251 C344.751465,251 344.507257,250.866226 344.370557,250.638967 L344.318833,250.535965 L341.637409,244.001465 C341.479859,243.617505 341.660278,243.177682 342.040412,243.019121 Z M326.985529,243.425858 C327.143005,243.042575 327.577667,242.860479 327.958917,243.019121 C328.307306,243.164469 328.487943,243.546154 328.394331,243.904506 L328.361921,244.001465 L325.680127,250.535214 C325.561161,250.824523 325.283981,250.999249 324.991594,250.999249 C324.896621,250.999249 324.800223,250.980905 324.706736,250.941957 C324.358347,250.796609 324.177713,250.414923 324.271323,250.056571 L324.303732,249.959613 L326.985529,243.425858 Z M334.99926,241.336285 C335.376393,241.336285 335.688057,241.618801 335.737382,241.986018 L335.744182,242.08812 L335.744182,248.806145 C335.744182,249.221762 335.410677,249.55798 334.99926,249.55798 C334.62219,249.55798 334.310473,249.275464 334.261139,248.908247 L334.254337,248.806145 L334.254337,242.08812 C334.254337,241.672503 334.587911,241.336285 334.99926,241.336285 Z M321.624843,237.934682 C321.915811,237.640939 322.38727,237.640939 322.678241,237.934682 C322.942752,238.201653 322.966799,238.619113 322.75038,238.913445 L322.678241,238.997778 L317.97152,243.748924 C317.826036,243.895755 317.635485,243.969136 317.444859,243.969136 C317.254234,243.969136 317.063683,243.895755 316.918199,243.748924 C316.653616,243.481885 316.629563,243.064419 316.84604,242.770085 L316.918199,242.685753 L321.624843,237.934682 Z M347.320722,237.93611 C347.585234,237.669139 347.998864,237.644869 348.290488,237.8633 L348.374044,237.93611 L353.08113,242.686504 C353.372098,242.980173 353.372098,243.455932 353.08113,243.749601 C352.935574,243.896512 352.745025,243.969888 352.554395,243.969888 C352.401955,243.969888 352.249468,243.922927 352.120081,243.828925 L352.027734,243.749601 L347.320722,238.999281 C347.02968,238.705612 347.02968,238.229778 347.320722,237.93611 Z M335.000004,213.231251 C345.166128,213.231251 351.705565,221.928873 353.387109,224.448899 L353.583659,224.748918 L359.826108,224.748918 C360.237528,224.748918 360.57103,225.085139 360.57103,225.500753 C360.57103,225.881664 360.290796,226.195989 359.927192,226.245731 L359.826108,226.252588 L353.582687,226.252588 L353.3072,226.670036 C351.506133,229.333233 345.011727,237.768749 335.000004,237.768749 C324.833872,237.768749 318.294435,229.07113 316.612895,226.551105 L316.416345,226.251086 L310.173894,226.251086 C309.762474,226.251086 309.428971,225.914864 309.428971,225.49925 C309.428971,225.118339 309.709206,224.804015 310.07281,224.754272 L310.173894,224.747415 L316.417313,224.747415 L316.692801,224.329967 C318.493867,221.666769 324.988274,213.231251 335.000004,213.231251 Z M354.091917,233.481635 C354.236273,233.13029 354.614478,232.947433 354.969252,233.042109 L355.065235,233.074892 L361.539358,235.781951 C361.919412,235.940513 362.099834,236.380339 361.942361,236.764298 C361.823393,237.053607 361.546206,237.228333 361.253823,237.228333 C361.190507,237.228333 361.12656,237.22018 361.063264,237.203205 L360.96897,237.171042 L354.494921,234.46406 C354.114861,234.305421 353.934444,233.865672 354.091917,233.481635 Z M314.934396,233.074141 C315.3152,232.915579 315.750235,233.097673 315.907712,233.480884 C316.052065,233.832918 315.912554,234.231765 315.5955,234.417987 L315.504709,234.463308 L309.03029,237.169613 C308.936801,237.208481 308.840409,237.226905 308.745505,237.226905 C308.453049,237.226905 308.175863,237.052099 308.056973,236.76287 C307.912551,236.410839 308.052119,236.01199 308.369184,235.825769 L308.459977,235.780448 L314.934396,233.074141 Z M335.000004,214.734922 C325.376718,214.734922 319.015826,223.532299 317.714372,225.500002 L318.096487,226.058003 C319.998321,228.75015 326.105755,236.265079 335.000004,236.265079 C344.623282,236.265079 350.984177,227.467704 352.285631,225.500002 L351.993652,225.070458 C350.201177,222.498264 344.040061,214.734922 335.000004,214.734922 Z M335.000004,218.388392 C338.885366,218.388392 342.046596,221.578578 342.046596,225.500002 C342.046596,229.421425 338.885366,232.611612 335.000004,232.611612 C331.114634,232.611612 327.953408,229.421425 327.953408,225.500002 C327.953408,221.578578 331.114634,218.388392 335.000004,218.388392 Z M335.000004,219.892062 C331.935912,219.892062 329.443253,222.407477 329.443253,225.500002 C329.443253,228.592526 331.935912,231.107941 335.000004,231.107941 C338.064092,231.107941 340.556751,228.592526 340.556751,225.500002 C340.556751,222.407477 338.064092,219.892062 335.000004,219.892062 Z M360.969714,213.83039 C361.350519,213.671077 361.785553,213.853922 361.943026,214.237133 C362.087449,214.589167 361.94788,214.988014 361.630816,215.174234 L361.540023,215.219555 L355.065604,217.925862 C354.97212,217.964733 354.875725,217.983151 354.780819,217.983151 C354.488362,217.983151 354.211255,217.808351 354.092293,217.519119 C353.947937,217.167085 354.087445,216.768238 354.404499,216.582016 L354.49529,216.536695 L360.969714,213.83039 Z M308.057647,214.235705 C308.202066,213.88436 308.57934,213.701438 308.934817,213.796162 L309.031034,213.828962 L315.505081,216.535943 C315.885141,216.694583 316.065564,217.134331 315.908084,217.518368 C315.78912,217.807674 315.512009,217.9824 315.219552,217.9824 C315.156234,217.9824 315.092155,217.974247 315.028882,217.957273 L314.934771,217.925111 L308.46065,215.218052 C308.080587,215.05949 307.900167,214.619667 308.057647,214.235705 Z M315.899741,208.052836 C316.164259,207.785866 316.577879,207.761596 316.869505,207.980026 L316.953061,208.052836 L321.660153,212.803233 C321.951118,213.096899 321.951118,213.572661 321.660153,213.866404 C321.514672,214.013235 321.324044,214.086616 321.133492,214.086616 C320.980991,214.086616 320.828491,214.039652 320.699103,213.945689 L320.606758,213.866404 L315.899741,209.116007 C315.608774,208.82234 315.608774,208.346579 315.899741,208.052836 Z M352.028854,207.25108 C352.319822,206.957413 352.791207,206.957413 353.082175,207.25108 C353.346759,207.518117 353.370812,207.935584 353.154335,208.229917 L353.082175,208.314249 L348.375158,213.064645 C348.229676,213.211479 348.039047,213.284857 347.848429,213.284857 C347.657873,213.284857 347.467249,213.211479 347.321768,213.064645 C347.057251,212.797608 347.033204,212.38014 347.249627,212.085807 L347.321768,212.001474 L352.028854,207.25108 Z M335.000749,201.442023 C335.377814,201.442023 335.689535,201.724542 335.73887,202.091757 L335.745671,202.193858 L335.745671,208.911883 C335.745671,209.327497 335.412093,209.663719 335.000749,209.663719 C334.623611,209.663719 334.311951,209.3812 334.262626,209.013984 L334.255826,208.911883 L334.255826,202.193858 C334.255826,201.778244 334.589326,201.442023 335.000749,201.442023 Z M344.319876,200.464788 C344.477426,200.081502 344.911716,199.898656 345.293265,200.058045 C345.641653,200.203393 345.82229,200.58508 345.728678,200.943434 L345.696268,201.040393 L343.014471,207.574142 C342.895508,207.863449 342.618399,208.038176 342.325941,208.038176 C342.230968,208.038176 342.13457,208.01983 342.041083,207.980886 C341.692695,207.835537 341.51206,207.45385 341.60567,207.095496 L341.638079,206.998537 L344.319876,200.464788 Z M324.707852,200.057294 C325.056923,199.911876 325.451564,200.052767 325.63621,200.372486 L325.68117,200.464035 L328.362591,206.998537 C328.520144,207.3825 328.339722,207.822324 327.959588,207.980886 C327.866101,208.019831 327.769709,208.038176 327.674806,208.038176 C327.418906,208.038176 327.174754,207.9044 327.038019,207.677144 L326.986273,207.574142 L324.304852,201.039641 C324.147373,200.655678 324.327719,200.215855 324.707852,200.057294 Z" transform="translate(-308 -200)"/>
</svg>
