<svg xmlns="http://www.w3.org/2000/svg" width="18" height="17" viewBox="0 0 18 17">
  <path fill="#EEECDD" d="M17.4638809,66.0011554 C16.9215636,65.7244463 16.3760887,65.4524538 15.8274561,65.185964 L15.5211692,65.0373901 C14.9614851,64.7646115 14.4010116,64.492619 13.8350123,64.2332042 C13.3795289,64.0256724 12.9043105,64.1294383 12.5648688,64.5154161 L12.2325317,64.8919606 C11.9270342,65.2386331 11.622326,65.5860917 11.3136709,65.931192 C10.9655458,66.3226725 10.8250327,66.3289614 10.4958532,66.154446 C9.52489206,65.6364025 8.65813162,65.1592365 7.8876779,64.5712296 C7.01539166,63.9046122 6.35861143,63.0516877 5.76103616,62.2357103 C5.55026654,61.9479957 5.34581212,61.6571367 5.1445153,61.3631332 C4.93295628,61.0534077 4.92664109,60.9150531 5.28029198,60.5282892 L6.56227646,59.1392409 C6.91040155,58.7619103 6.9656595,58.2808137 6.70910473,57.8516001 C6.38860861,57.3162623 6.0562715,56.7879995 5.72314499,56.2613088 L5.54631955,55.9806692 C5.22187643,55.4657701 4.89269692,54.9540154 4.55878101,54.4454052 C4.35748419,54.1388241 4.01725308,53.9729558 3.67623258,54.0036139 C1.86140357,54.1844182 0.120778094,56.151254 0.0236819793,58.1306676 C0.0142091876,58.3216912 0.00947279171,58.5119287 0.00552579516,58.7029524 L0,58.9199175 L0.00631519447,59.0543415 C0.187087636,60.6076859 0.772821924,62.0902808 1.79588343,63.5870255 C2.67369546,64.8715219 3.68333718,66.0514662 4.80902059,67.1072058 C5.96706938,68.0976987 7.25221145,68.972634 8.62971325,69.7068565 C10.2329832,70.5621393 11.7754695,70.985064 13.3495317,71 L13.6795006,70.9646253 C13.8752717,70.9394699 14.0718321,70.9143145 14.2668137,70.8828703 C16.232418,70.5770753 18.011724,68.6448281 17.999883,66.8297106 L17.999883,66.8289245 C17.9975148,66.4838242 17.7914816,66.1670237 17.4638809,66.0011554 Z M14.1436674,70.105412 C13.955001,70.135284 13.7655452,70.1596533 13.5760893,70.1848086 L13.3526893,70.2131084 C11.9136144,70.1989585 10.4903274,69.8066919 9.00152032,69.0142976 C7.67454008,68.3068027 6.43676197,67.4640977 5.33554993,66.5231294 C4.26433507,65.5192728 3.29258452,64.3817782 2.44713786,63.1452343 C1.49749049,61.7553998 0.955173164,60.3875763 0.78782051,58.9435006 L0.793346306,58.7218189 C0.798082701,58.5378702 0.802029698,58.3531354 0.81150249,58.1691867 C0.889653021,56.5733927 2.31925517,54.9288601 3.75438311,54.786575 C3.75675131,54.786575 3.75911951,54.786575 3.76227711,54.786575 C3.80727287,54.786575 3.86332022,54.8235219 3.89805379,54.8769771 C4.2288121,55.3816568 4.55562341,55.8879087 4.87690893,56.3988773 L5.05373438,56.6795169 C5.38291389,57.202277 5.7128828,57.7242511 6.02943192,58.2548722 C6.09495207,58.3641409 6.11152945,58.4663346 5.97969977,58.6086197 L4.69534709,60.0000264 C4.28801705,60.4457481 3.94462835,61.0085997 4.49089267,61.8064967 C4.69613649,62.1075751 4.90690611,62.405509 5.12162272,62.7002986 C5.72551319,63.5249232 6.45018175,64.4666776 7.40614432,65.1961834 C8.2247514,65.8211373 9.11993022,66.3140254 10.1216779,66.8485771 C10.9750186,67.3060905 11.5015479,66.9059628 11.9025628,66.4547383 C12.2120073,66.1088519 12.5182942,65.759821 12.8245812,65.4115763 L13.1561289,65.0350318 C13.284801,64.8896023 13.3882123,64.895105 13.504254,64.9485602 C14.0639381,65.2048306 14.6188858,65.4744647 15.1722547,65.744885 L15.4793311,65.893459 C16.0224378,66.1583765 16.5639657,66.4280107 17.1039148,66.7023615 C17.1639092,66.7330196 17.2089049,66.7888331 17.2089049,66.8352133 C17.2199565,68.2698558 15.7295706,69.8585749 14.1436674,70.105412 Z" transform="translate(0 -54)"/>
</svg>
