<svg xmlns="http://www.w3.org/2000/svg" width="17" height="17" viewBox="0 0 17 17">
  <path fill="#EEECDD" d="M8.50633855,98 C3.81764393,98 0,101.804937 0,106.493661 C0,111.182406 3.81764393,115 8.50633855,115 C13.1951374,115 17,111.182406 17,106.493661 C17,101.804937 13.1951374,98 8.50633855,98 Z M8.50633855,98.8240119 C12.7566211,98.8240119 16.1759881,102.243415 16.1759881,106.493661 C16.1759881,110.74392 12.7566211,114.175988 8.50633855,114.175988 C4.25616026,114.175988 0.824011931,110.74392 0.824011931,106.493661 C0.824011931,102.243415 4.25616026,98.8240119 8.50633855,98.8240119 Z M8.45563013,101.612975 C8.24656716,101.632679 8.08708858,101.808655 8.08799403,102.018643 L8.03728561,107.431767 C8.03782245,107.548525 8.08863628,107.659392 8.17673378,107.736018 L10.699478,109.941834 C10.8103087,110.038019 10.9641691,110.06747 11.1026858,110.019013 C11.2412025,109.970555 11.3431513,109.851615 11.3698536,109.707317 C11.396556,109.563018 11.3439205,109.415472 11.2319165,109.320656 L8.84862043,107.254288 L8.89932886,102.03132 C8.90348597,101.914623 8.85716004,101.801794 8.77219895,101.721688 C8.68723787,101.641581 8.57188071,101.601967 8.45563013,101.612975 Z" transform="translate(0 -98)"/>
</svg>
