<svg xmlns="http://www.w3.org/2000/svg" width="17" height="17" viewBox="0 0 17 17">
  <path fill="#EEECDD" d="M15.0903052,144 C16.6699599,144 17.9597644,145.265465 17.9990768,146.836019 L18,146.909858 L18,158.090142 C18,159.669995 16.7344979,160.959765 15.1641356,160.999077 L15.0903052,161 L3.90969479,161 C2.33004014,161 1.04023563,159.734535 1.00092322,158.163981 L1,158.090142 L1,146.909858 C1,145.330005 2.26550213,144.040235 3.83586443,144.000923 L3.90969479,144 L15.0903052,144 Z M15.0903052,144.776029 L3.90969479,144.776029 C2.75457232,144.776029 1.81068874,145.698883 1.77674756,146.845909 L1.77580253,146.909858 L1.77580253,158.090142 C1.77580253,159.24523 2.69868389,160.189086 3.84574308,160.223026 L3.90969479,160.223971 L15.0903052,160.223971 C16.2454277,160.223971 17.1893113,159.301117 17.2232524,158.154091 L17.2241975,158.090142 L17.2241975,146.909858 C17.2241975,145.75477 16.3013161,144.810914 15.1542569,144.776974 L15.0903052,144.776029 Z M9.5,148.646222 C11.6249378,148.646222 13.3538905,150.374876 13.3538905,152.5 C13.3538905,154.625124 11.6251866,156.354026 9.5,156.354026 C7.37481345,156.354026 5.6461095,154.625124 5.6461095,152.5 C5.6461095,150.375124 7.37481345,148.646222 9.5,148.646222 Z M9.5,149.422002 C7.80288532,149.422002 6.42191204,150.802438 6.42191204,152.499751 C6.42191204,154.197065 7.80288532,155.577749 9.5,155.577749 C11.1971147,155.577749 12.578088,154.196816 12.578088,152.499751 C12.578088,150.802686 11.1971147,149.422002 9.5,149.422002 Z" transform="translate(-1 -144)"/>
</svg>
