<svg xmlns="http://www.w3.org/2000/svg" width="17" height="21" viewBox="0 0 17 21">
  <path fill="#EEECDD" d="M8.5,23 C8.30517647,23 8.14705882,22.8412152 8.14705882,22.6455696 C8.14705882,20.4679494 5.19435294,18.496135 4.56964706,18.1036624 C1.75082353,16.6245063 0,13.7259747 0,10.535865 C0,5.82926582 3.81317647,2 8.5,2 C13.1868235,2 17,5.82926582 17,10.535865 C17,13.7259747 15.2494118,16.6247426 12.4303529,18.1036624 C11.8056471,18.496135 8.85294118,20.4679494 8.85294118,22.6455696 C8.85294118,22.8412152 8.69482353,23 8.5,23 Z M8.5,2.70886076 C4.20211765,2.70886076 0.705882353,6.2198481 0.705882353,10.535865 C0.705882353,13.4653502 2.316,16.1268861 4.90776471,17.481519 C4.91576471,17.4860084 4.92376471,17.4904979 4.93176471,17.4954599 C5.65741176,17.9493671 7.67929412,19.3363713 8.5,21.129789 C9.32070588,19.336135 11.3425882,17.9493671 12.0682353,17.4949873 C12.076,17.4900253 12.084,17.4855359 12.0922353,17.4810464 C14.6842353,16.1266498 16.2941176,13.4651139 16.2941176,10.5353924 C16.2941176,6.2198481 12.7978824,2.70886076 8.5,2.70886076 Z M8.5,13.9324895 C6.63482353,13.9324895 5.11764706,12.4089114 5.11764706,10.535865 C5.11764706,8.66281857 6.63482353,7.13924051 8.5,7.13924051 C10.3651765,7.13924051 11.8823529,8.66281857 11.8823529,10.535865 C11.8823529,12.4089114 10.3651765,13.9324895 8.5,13.9324895 Z M8.5,7.84810127 C7.02423529,7.84810127 5.82352941,9.05387342 5.82352941,10.535865 C5.82352941,12.0178565 7.02423529,13.2236287 8.5,13.2236287 C9.97576471,13.2236287 11.1764706,12.0178565 11.1764706,10.535865 C11.1764706,9.05387342 9.97576471,7.84810127 8.5,7.84810127 Z" transform="translate(0 -2)"/>
</svg>
