<svg xmlns="http://www.w3.org/2000/svg" width="20" height="20" viewBox="0 0 20 20">
  <path fill="#D0C120" fill-rule="evenodd" d="M1347.96603,0.00141624556 C1349.972,0.00141624556 1352.52228,-0.11243756 1354.34784,1.70150835 C1356.1734,3.51545426 1355.99525,6.02344613 1355.99525,8.02879292 L1355.99525,11.9509254 C1355.99525,13.9564386 1356.15468,16.6857103 1354.34784,18.4906595 C1352.541,20.2956087 1349.972,19.978306 1347.96603,19.978306 L1344.04299,19.978306 C1342.03701,19.978306 1339.36164,20.2970872 1337.55489,18.4906595 C1335.74814,16.6842318 1336.01377,13.9564386 1336.01377,11.9509254 L1336.01377,8.02879691 C1336.01377,6.02345013 1335.74771,3.50793599 1337.55489,1.70150833 C1339.36207,-0.104919327 1342.03701,0.00141624556 1344.04299,0.00141624556 L1347.96603,0.00141624556 Z M1348.67729,1.81471021 L1343.3352,1.81471021 C1341.69174,1.81471021 1340.27072,1.65527101 1338.94071,2.98545264 C1337.60803,4.31563427 1337.821,5.68497071 1337.821,7.32813565 L1337.821,12.6701866 C1337.821,14.313488 1337.61071,15.7019895 1338.94071,17.0321703 C1340.27202,18.3610043 1341.69174,18.1836121 1343.3352,18.1836121 L1348.67729,18.1836121 C1350.32075,18.1836121 1351.81501,18.2049612 1352.98548,17.0321711 C1354.15596,15.8616113 1354.19149,14.313488 1354.19149,12.6701866 L1354.19149,7.32813237 C1354.19149,5.68496744 1354.16423,4.168359 1352.98548,2.98545268 C1351.65397,1.65266901 1350.32075,1.81471021 1348.67729,1.81471021 Z M1346,15.1595745 C1343.15045,15.1595745 1340.84043,12.8495543 1340.84043,10 C1340.84043,7.15044571 1343.15045,4.84042553 1346,4.84042553 C1348.84955,4.84042553 1351.15957,7.15044571 1351.15957,10 C1351.15957,12.8495543 1348.84955,15.1595745 1346,15.1595745 Z M1346,13.3510638 C1347.85074,13.3510638 1349.35106,11.8507414 1349.35106,10 C1349.35106,8.14925855 1347.85074,6.64893617 1346,6.64893617 C1344.14926,6.64893617 1342.64894,8.14925855 1342.64894,10 C1342.64894,11.8507414 1344.14926,13.3510638 1346,13.3510638 Z M1351.37234,5.85106383 C1350.69667,5.85106383 1350.14894,5.30332709 1350.14894,4.62765957 C1350.14894,3.95199206 1350.69667,3.40425532 1351.37234,3.40425532 C1352.04801,3.40425532 1352.59574,3.95199206 1352.59574,4.62765957 C1352.59574,5.30332709 1352.04801,5.85106383 1351.37234,5.85106383 Z" transform="translate(-1336)"/>
</svg>
