<svg xmlns="http://www.w3.org/2000/svg" width="186" height="216" viewBox="0 0 186 216">
  <path fill="#FFF" d="M788.456216,287.412527 C789.447349,287.412527 790.321878,287.587473 791.138105,287.937365 C791.954332,288.287257 792.653955,288.75378 793.236975,289.336933 C793.819994,289.920086 794.28641,290.61987 794.577919,291.4946 C794.927731,292.311015 795.044335,293.24406 795.044335,294.177106 C795.044335,295.168467 794.869429,296.043197 794.577919,296.917927 C794.228108,297.734341 793.819994,298.434125 793.236975,299.075594 C792.653955,299.658747 791.954332,300.12527 791.138105,300.475162 C790.321878,300.825054 789.447349,301 788.456216,301 C787.465083,301 786.590553,300.825054 785.774326,300.475162 C784.958099,300.12527 784.258476,299.658747 783.675456,299.075594 C783.141022,298.541037 782.704567,297.859476 782.410999,297.120748 L782.334512,296.917927 C781.9847,296.043197 781.868096,295.168467 781.868096,294.177106 C781.868096,293.185745 782.043002,292.311015 782.334512,291.4946 C782.684323,290.678186 783.092437,289.978402 783.675456,289.336933 C784.258476,288.75378 784.958099,288.287257 785.774326,287.937365 C786.590553,287.587473 787.465083,287.412527 788.456216,287.412527 Z M826.060968,287.412527 C827.052101,287.412527 827.92663,287.587473 828.742857,287.937365 C829.559084,288.287257 830.258708,288.75378 830.841727,289.336933 C831.424746,289.920086 831.891162,290.61987 832.182672,291.4946 C832.532483,292.311015 832.649087,293.24406 832.649087,294.177106 C832.649087,295.168467 832.474181,296.043197 832.182672,296.917927 C831.83286,297.734341 831.424746,298.434125 830.841727,299.075594 C830.258708,299.658747 829.559084,300.12527 828.742857,300.475162 C827.92663,300.825054 827.052101,301 826.060968,301 C825.069835,301 824.195306,300.825054 823.379078,300.475162 C822.562851,300.12527 821.863228,299.658747 821.280209,299.075594 C820.745774,298.541037 820.309319,297.859476 820.015751,297.120748 L819.939264,296.917927 C819.589452,296.043197 819.472848,295.168467 819.472848,294.177106 C819.472848,293.185745 819.647754,292.311015 819.939264,291.4946 C820.289076,290.678186 820.697189,289.978402 821.280209,289.336933 C821.863228,288.75378 822.562851,288.287257 823.379078,287.937365 C824.195306,287.587473 825.069835,287.412527 826.060968,287.412527 Z M808.39548,287.295896 C809.270009,287.295896 810.086236,287.470842 810.844161,287.762419 C811.602086,288.053996 812.243408,288.578834 812.826427,289.336933 L811.835294,290.153348 C811.42718,289.570194 810.902463,289.103672 810.319444,288.812095 C809.678122,288.520518 809.036801,288.403888 808.39548,288.403888 C807.579252,288.403888 806.821327,288.578834 806.121704,288.812095 C805.422081,289.103672 804.897363,289.511879 804.430948,290.036717 C803.964532,290.561555 803.61472,291.144708 803.323211,291.844492 C803.090003,292.544276 802.915097,293.302376 802.915097,294.060475 C802.915097,294.87689 803.031701,295.576674 803.323211,296.276458 C803.556418,296.976242 803.964532,297.559395 804.430948,298.084233 C804.897363,298.609071 805.480382,299.017279 806.121704,299.308855 C806.821327,299.600432 807.52095,299.717063 808.39548,299.717063 C808.745291,299.717063 809.036801,299.658747 809.386613,299.600432 C809.736424,299.542117 810.086236,299.425486 810.436047,299.25054 C810.785859,299.075594 811.077369,298.900648 811.368879,298.609071 C811.660388,298.37581 811.951898,298.084233 812.185106,297.734341 L813.176239,298.550756 C812.534917,299.367171 811.835294,300.008639 811.019067,300.358531 C810.20284,300.708423 809.328311,300.883369 808.39548,300.883369 C807.404347,300.883369 806.529817,300.708423 805.71359,300.358531 C804.897363,300.008639 804.19774,299.542117 803.61472,298.958963 C803.031701,298.37581 802.565285,297.617711 802.273776,296.801296 C801.923964,295.984881 801.80736,295.051836 801.80736,294.060475 C801.80736,293.069114 801.982266,292.194384 802.273776,291.37797 C802.623587,290.561555 803.031701,289.861771 803.61472,289.220302 C804.19774,288.637149 804.897363,288.170626 805.71359,287.820734 C806.529817,287.470842 807.404347,287.295896 808.39548,287.295896 Z M771.665257,287.99568 C771.956766,287.99568 772.248276,288.053996 772.598088,288.112311 C772.947899,288.170626 773.297711,288.287257 773.647523,288.403888 C773.997334,288.520518 774.288844,288.75378 774.580354,288.987041 C774.871863,289.220302 775.105071,289.570194 775.279977,289.978402 C775.454883,290.386609 775.571487,290.853132 775.571487,291.37797 C775.571487,292.019438 775.454883,292.485961 775.221675,292.894168 C774.988467,293.302376 774.755259,293.593952 774.405448,293.885529 C774.055636,294.11879 773.705824,294.293737 773.356013,294.410367 L773.019119,294.507616 C772.748007,294.584123 772.498141,294.643629 772.248276,294.643629 L775.9796,300.825054 L774.638656,300.825054 L771.023935,294.701944 L768.808461,294.701944 L768.808461,300.825054 L767.584121,300.825054 L767.584121,287.99568 L771.665257,287.99568 Z M790.146972,252.423326 C791.254709,252.423326 792.18754,252.539957 793.003767,252.831533 C793.761692,253.12311 794.403014,253.473002 794.927731,253.88121 C795.452449,254.289417 795.860562,254.75594 796.152072,255.280778 C796.443582,255.805616 796.676789,256.272138 796.793393,256.738661 L796.89062,257.125616 C796.967109,257.438445 797.026601,257.730022 797.026601,258.021598 C797.066909,258.303816 797.079349,258.502413 797.083189,258.655932 L797.084263,258.964563 C797.082344,259.102312 797.074666,259.277498 797.043956,259.524678 L797.026601,259.654428 C796.968299,260.062635 796.909997,260.470842 796.793393,260.937365 C796.676789,261.403888 796.443582,261.928726 796.152072,262.395248 C795.860562,262.920086 795.452449,263.386609 794.927731,263.794816 C794.403014,264.203024 793.761692,264.552916 793.003767,264.844492 C792.245842,265.136069 791.313011,265.2527 790.146972,265.2527 L786.18244,265.2527 L786.18244,252.423326 L790.146972,252.423326 Z M809.561518,252.423326 L814.983599,265.2527 L813.642654,265.2527 L812.243408,261.812095 L805.422081,261.812095 L803.964532,265.2527 L802.740191,265.2527 L808.337178,252.423326 L809.561518,252.423326 Z M826.060968,288.520518 C825.244741,288.520518 824.486815,288.637149 823.787192,288.928726 C823.087569,289.220302 822.562851,289.62851 822.096436,290.153348 C821.63002,290.678186 821.280209,291.261339 820.988699,291.961123 C820.755491,292.602592 820.638887,293.360691 820.638887,294.177106 C820.638887,294.993521 820.755491,295.693305 820.988699,296.393089 C821.221907,297.092873 821.63002,297.676026 822.096436,298.200864 C822.562851,298.725702 823.145871,299.133909 823.787192,299.425486 C824.486815,299.717063 825.186439,299.833693 826.060968,299.833693 C826.877195,299.833693 827.63512,299.717063 828.334743,299.425486 C828.976065,299.133909 829.559084,298.725702 830.0255,298.200864 C830.491915,297.676026 830.841727,297.092873 831.133237,296.393089 C831.366444,295.693305 831.483048,294.935205 831.483048,294.177106 C831.483048,293.360691 831.366444,292.660907 831.133237,291.961123 C830.900029,291.261339 830.491915,290.678186 830.0255,290.153348 C829.559084,289.62851 828.976065,289.220302 828.334743,288.928726 C827.693422,288.637149 826.935497,288.520518 826.060968,288.520518 Z M788.514518,288.520518 C787.69829,288.520518 786.940365,288.637149 786.240742,288.928726 C785.541119,289.220302 785.016401,289.62851 784.549986,290.153348 C784.08357,290.678186 783.733758,291.261339 783.442249,291.961123 C783.150739,292.602592 783.034135,293.360691 783.034135,294.177106 C783.034135,294.993521 783.150739,295.693305 783.442249,296.393089 C783.675456,297.092873 784.08357,297.676026 784.549986,298.200864 C785.016401,298.725702 785.59942,299.133909 786.240742,299.425486 C786.882063,299.717063 787.639988,299.833693 788.514518,299.833693 C789.330745,299.833693 790.08867,299.717063 790.788293,299.425486 C791.429615,299.133909 792.012634,298.725702 792.47905,298.200864 C792.945465,297.676026 793.295277,297.092873 793.586786,296.393089 C793.819994,295.693305 793.9949,294.935205 793.9949,294.177106 C793.9949,293.360691 793.878296,292.660907 793.586786,291.961123 C793.353579,291.261339 792.945465,290.678186 792.47905,290.153348 C792.012634,289.62851 791.429615,289.220302 790.788293,288.928726 C790.08867,288.637149 789.389047,288.520518 788.514518,288.520518 Z M789.855462,253.589633 L787.406781,253.589633 L787.406781,264.203024 L789.855462,264.203024 C790.671689,264.203024 791.487917,264.086393 792.245842,263.911447 C793.003767,263.678186 793.645088,263.386609 794.169806,262.920086 C794.694523,262.511879 795.160939,261.928726 795.452449,261.287257 C795.743958,260.587473 795.918864,259.829374 795.918864,258.896328 C795.918864,257.963283 795.743958,257.205184 795.452449,256.5054 C795.160939,255.805616 794.694523,255.280778 794.169806,254.87257 C793.645088,254.406048 793.003767,254.114471 792.245842,253.88121 C791.487917,253.647948 790.729991,253.589633 789.855462,253.589633 Z M808.920197,253.706263 L805.946798,260.762419 L811.835294,260.762419 L808.920197,253.706263 Z M771.373747,289.103672 L768.808461,289.103672 L768.808461,293.652268 L771.373747,293.652268 C771.956766,293.652268 772.443419,293.604073 772.789901,293.463871 L772.889597,293.419006 C773.297711,293.24406 773.589221,293.069114 773.822428,292.835853 C774.055636,292.602592 774.17224,292.36933 774.288844,292.077754 L774.359214,291.735002 C774.38641,291.59695 774.405448,291.477939 774.405448,291.37797 C774.405448,291.191361 774.368135,291.004752 774.323359,290.818143 L774.288844,290.678186 C774.230542,290.386609 774.055636,290.153348 773.822428,289.920086 C773.589221,289.686825 773.297711,289.511879 772.889597,289.336933 C772.481484,289.161987 771.956766,289.103672 771.373747,289.103672 Z M879.87366,210.961123 C880.325336,210.961123 880.714897,211.168226 880.955966,211.496037 C883.128987,213.282067 883.014715,216.464931 882.330019,219.248829 L882.521378,218.920866 C884.174412,216.132505 887.771823,211.192493 891.845189,212.401928 L892.010582,212.454348 C892.073866,212.471907 892.136128,212.492902 892.196963,212.518359 L892.284277,212.558147 C892.463309,212.648697 892.625127,212.777229 892.758389,212.943844 C893.166502,213.526998 893.049898,214.343413 892.466879,214.809935 C891.88386,215.218143 891.067632,215.101512 890.601217,214.518359 C890.211861,214.031552 890.269418,213.382195 890.638224,212.909524 C886.718643,212.871422 883.289598,218.909759 882.418433,220.572925 L882.438945,220.583153 L881.38951,222.62419 C881.086424,223.173041 880.777482,223.719063 880.462739,224.262199 L880.281773,224.606911 L880.25929,224.611501 C879.356656,226.153383 878.407153,227.671789 877.412045,229.165347 L877.796244,228.867865 C880.503918,226.814859 884.435329,224.756071 887.336308,227.056156 C887.433831,227.121186 887.476978,227.222476 887.475854,227.329699 C887.502099,227.38168 887.525033,227.43625 887.544037,227.493381 L887.569516,227.580994 C887.802724,228.280778 887.39461,229.038877 886.694987,229.213823 C885.995363,229.388769 885.237438,229.038877 885.062532,228.339093 C884.92857,227.803122 885.102416,227.267151 885.505486,226.940786 C881.885779,225.934578 877.086473,230.282189 875.639681,231.732482 C875.302401,232.203464 874.960905,232.671737 874.61481,233.137313 L874.482976,233.402186 C874.096918,234.167792 873.801597,234.666887 873.751956,234.75378 C873.635352,234.87041 873.518748,234.928726 873.402144,234.928726 C873.358223,234.928726 873.314303,234.928726 873.270382,234.903794 C872.37529,236.05121 871.451744,237.181388 870.500402,238.293614 L870.771314,238.117681 C873.577005,236.320229 877.917745,234.304655 880.761307,236.662668 C881.077491,236.849713 881.316279,237.173 881.377863,237.569054 L881.38951,237.669546 C881.50145,238.341339 881.022348,239.013132 880.313277,239.117394 L880.223471,239.12743 C879.523848,239.24406 878.824225,238.719222 878.765923,237.961123 C878.72305,237.446527 878.995451,236.963465 879.420837,236.697454 C875.302192,234.865992 868.557759,240.648954 868.504781,240.701944 C868.425849,240.701944 868.373633,240.728665 868.330047,240.745932 C867.977329,241.132869 867.619568,241.517923 867.258356,241.900588 L867.148273,242.016735 L866.988931,242.276458 C866.885347,242.483672 866.781764,242.506811 866.678181,242.509394 C865.673576,243.556039 864.642929,244.584436 863.586865,245.593908 L863.895194,245.44705 C866.813814,244.082162 870.844811,242.918632 873.275654,245.259282 C873.66201,245.500029 873.926862,245.945192 873.926862,246.416847 C873.86856,247.174946 873.28554,247.699784 872.527615,247.699784 C871.827992,247.641469 871.244972,247.058315 871.244972,246.358531 C871.284911,245.879162 871.571077,245.454523 871.991023,245.234579 C868.592752,243.332704 862.721957,246.845556 861.147568,247.85088 C859.170879,249.62237 857.112732,251.330388 854.976833,252.97094 L855.434507,252.81488 C858.710328,251.732942 863.434649,250.931792 865.47308,254.231102 C865.556168,254.355762 865.550448,254.510033 865.477012,254.609517 C865.486699,254.739819 865.476269,254.873618 865.44354,255.006454 L865.414778,255.105832 C865.24716,255.776458 864.544095,256.179299 863.870034,256.006404 L863.782324,255.980562 C863.111851,255.812905 862.709102,255.109679 862.881959,254.435463 L862.907795,254.347732 C863.023572,253.884518 863.394806,253.549062 863.835491,253.442846 C860.614906,251.143154 854.185433,253.949178 852.716722,254.659407 C850.518456,256.259525 848.242643,257.790071 845.893304,259.24708 L846.365767,259.12417 C849.543965,258.328449 854.242823,257.78509 856.264369,260.74782 C856.402059,260.884903 856.506133,261.049644 856.572414,261.228165 L856.611185,261.345572 C856.657462,261.415004 856.667007,261.493621 856.650753,261.566842 C856.676015,261.82545 856.627189,262.093762 856.494581,262.336933 C856.144769,262.978402 855.328542,263.211663 854.687221,262.861771 C854.0459,262.511879 853.812692,261.695464 854.162503,261.053996 C854.345422,260.688074 854.655873,260.46566 855.002162,260.386752 C851.619712,257.518293 843.597773,260.710145 843.493248,260.762419 C843.444924,260.778531 843.392149,260.78574 843.339842,260.784045 C842.725831,261.143657 842.106382,261.498089 841.482278,261.847543 L841.044567,262.220302 C840.986265,262.278618 840.927963,262.336933 840.811359,262.336933 C840.757704,262.336933 840.70405,262.324586 840.656075,262.305573 L840.173491,262.568702 C839.123179,263.138097 838.06274,263.691928 836.992654,264.230058 C839.316442,263.861289 841.692412,264.078258 843.15856,265.820959 C843.251023,265.912257 843.330103,266.015734 843.394059,266.126591 C843.448303,266.20159 843.500711,266.279875 843.55155,266.360691 C843.624588,266.470273 843.629002,266.602734 843.579121,266.715081 C843.597931,266.976191 843.53646,267.240322 843.376644,267.468683 C842.968531,268.110151 842.152304,268.285097 841.569284,267.87689 C840.927963,267.468683 840.753057,266.652268 841.161171,266.069114 C841.313507,265.829674 841.514582,265.655234 841.740139,265.551861 C839.173582,263.97668 834.833588,265.396199 832.361999,266.433435 C832.000434,266.596503 831.637377,266.757591 831.273361,266.916941 L831.007136,267.042958 C830.685381,267.197305 830.499907,267.293737 830.491915,267.293737 C830.475016,267.285285 830.459342,267.279283 830.444714,267.275199 L829.531196,267.663229 L829.341238,267.777332 C829.012859,267.972124 828.79682,268.087019 828.742857,268.110151 C828.742857,268.051836 828.684555,268.110151 828.626253,268.110151 C828.584817,268.110151 828.543381,268.102787 828.504561,268.088059 C820.278056,271.447025 811.594479,273.935046 802.646367,275.496898 C808.295939,276.244484 814.036101,276.62419 819.82266,276.62419 L819.82266,277.440605 C813.112018,277.440605 806.463104,276.935432 799.94382,275.939019 C793.439838,276.933219 786.80731,277.440605 780.119038,277.440605 L780.119038,276.740821 C786.02494,276.740821 791.88251,276.345291 797.644708,275.566297 C788.576665,274.012094 779.777535,271.501389 771.432676,268.072257 C771.397242,268.095803 771.356343,268.110151 771.315445,268.110151 C771.257143,268.110151 771.198841,268.110151 771.140539,268.051836 L770.806946,267.859645 C770.73022,267.814529 770.642074,267.762084 770.543844,267.702618 C769.105078,267.097841 767.680163,266.465584 766.270043,265.806049 L765.912196,265.681735 C763.431068,264.841597 760.245532,264.22115 758.223356,265.550857 C758.452579,265.653618 758.649348,265.828564 758.780527,266.069114 C759.188641,266.652268 758.955433,267.468683 758.372414,267.87689 C757.789394,268.285097 756.973167,268.110151 756.565054,267.468683 C756.194087,266.938609 756.304836,266.215805 756.809726,265.782036 L756.897133,265.711641 L757.024353,265.575457 C758.491055,264.059649 760.725832,263.852849 762.92575,264.175734 C761.725927,263.568002 760.537954,262.939262 759.362241,262.290334 L759.255333,262.319395 C759.215678,262.329124 759.173008,262.336933 759.130339,262.336933 C759.072037,262.336933 758.955433,262.336933 758.897131,262.278618 L758.50971,261.95002 C758.392632,261.8483 758.253156,261.725068 758.095924,261.582312 C757.604539,261.304066 757.115996,261.022748 756.630327,260.738387 C756.568071,260.756773 756.500169,260.756113 756.436731,260.729263 L756.390148,260.704104 C756.285198,260.651617 748.198357,257.433985 744.839999,260.362951 C745.23051,260.40864 745.595501,260.63905 745.837497,261.053996 C746.187308,261.695464 745.9541,262.511879 745.312779,262.861771 C744.671458,263.211663 743.855231,262.978402 743.505419,262.336933 C743.389078,262.123593 743.337225,261.890902 743.343426,261.662458 C743.251285,261.555128 743.227576,261.421193 743.272211,261.287257 C745.1545,257.439957 750.770299,258.303705 754.112911,259.221233 C751.733767,257.745841 749.428138,256.195579 747.200393,254.574216 L746.821724,254.4037 C744.663724,253.453041 739.085058,251.341526 736.220111,253.47637 C736.580362,253.599003 736.878993,253.877815 737.005835,254.252184 L737.033903,254.347732 C737.257394,255.018359 736.891894,255.742542 736.245284,255.955702 L736.159374,255.980562 C735.488902,256.204104 734.764885,255.838519 734.551773,255.191761 L734.52692,255.105832 C734.329687,254.513998 734.591174,253.880452 735.099768,253.593242 C737.376642,250.911667 741.910873,251.845112 744.98249,252.915618 C742.933216,251.344493 740.95506,249.710773 739.050965,248.018223 L738.635713,247.754013 C736.861592,246.648275 731.256447,243.440755 727.961161,245.241778 C728.370578,245.463487 728.638424,245.884218 728.638424,246.358531 C728.638424,247.058315 728.055404,247.641469 727.355781,247.699784 C726.656158,247.699784 726.014836,247.174946 726.014836,246.416847 C726.014836,245.945659 726.279165,245.50091 726.665436,245.260621 C729.235936,242.786166 733.596966,244.252095 736.539692,245.710027 C735.607204,244.82551 734.694933,243.925895 733.802613,243.011917 L733.312249,242.505637 C733.228835,242.494163 733.150483,242.45258 733.097763,242.381185 L732.928247,242.104705 C732.504189,241.659358 732.084826,241.210709 731.670208,240.758802 C731.61129,240.755989 731.537745,240.74448 731.495219,240.701944 L731.230815,240.480841 C729.938668,239.429307 724.208486,235.058817 720.559681,236.706824 C720.983002,236.974019 721.21818,237.452146 721.175775,237.961123 C721.119805,238.688898 720.472794,239.2017 719.802141,239.138373 L719.718227,239.12743 C718.990619,239.071447 718.477935,238.424287 718.541248,237.753479 L718.552188,237.669546 C718.591128,237.163207 718.916162,236.760925 719.336205,236.584327 C722.261777,234.286464 726.700379,236.457824 729.463714,238.269069 C728.515595,237.164395 727.596174,236.041361 726.704908,234.900875 C726.686016,234.928726 726.630531,234.928726 726.539554,234.928726 C726.439608,234.928726 726.339662,234.885882 726.27643,234.800194 L726.119656,234.530299 C725.97485,234.27513 725.726558,233.825584 725.435593,233.238742 C725.106794,232.798415 724.782131,232.355606 724.461642,231.910351 L724.310724,231.75978 C722.875422,230.340882 718.068593,225.946594 714.441868,226.940188 C714.859914,227.266409 715.057905,227.802751 714.879166,228.339093 C714.645958,229.038877 713.946335,229.388769 713.246711,229.213823 C712.576239,229.046166 712.17349,228.34294 712.346346,227.668724 L712.372182,227.580994 C712.394558,227.491468 712.426477,227.40767 712.466594,227.329964 C712.46472,227.222476 712.507867,227.121186 712.60539,227.056156 C715.596977,224.684231 719.661541,226.947718 722.370537,229.059855 L722.621422,229.258143 L722.081062,228.439766 C720.828705,226.522659 719.651486,224.563752 718.552188,222.565875 L717.838651,221.177889 C717.78361,221.149013 717.733007,221.105195 717.699441,221.042235 L717.664961,220.965512 C717.416343,220.459864 713.702573,212.997043 709.358136,212.910237 C709.714555,213.38365 709.739088,214.032098 709.398783,214.518359 C708.932368,215.101512 708.11614,215.218143 707.533121,214.809935 C706.950102,214.343413 706.833498,213.526998 707.241611,212.943844 C707.291877,212.880998 707.346205,212.823571 707.403866,212.771634 C707.426271,212.664366 707.488761,212.569866 707.591423,212.535637 C712.317633,210.702604 716.405564,217.169111 717.809305,219.722889 L717.71822,219.380954 C716.9958,216.568861 716.823209,213.301704 719.00599,211.468758 C719.248632,211.156807 719.62899,210.961123 720.068038,210.961123 C720.767662,210.961123 721.408983,211.544276 721.408983,212.302376 C721.408983,213.00216 720.825964,213.643629 720.068038,213.643629 C719.484192,213.598707 719.004135,213.242349 718.814416,212.761149 C716.330726,216.443736 720.365585,224.088111 720.41785,224.140389 C720.473211,224.22345 720.476004,224.319656 720.444946,224.404043 C721.602033,226.36932 722.83814,228.295346 724.148622,230.17955 L724.039036,229.850241 C723.108718,226.973656 722.711583,223.536625 725.039274,221.596201 C725.281196,221.336127 725.624864,221.166307 726.014836,221.166307 C726.71446,221.166307 727.355781,221.74946 727.355781,222.507559 C727.355781,223.178186 726.820334,223.741698 726.108637,223.787493 L726.014836,223.790497 C725.424061,223.835951 724.939552,223.491673 724.754582,222.978593 C723.027743,225.619342 724.71281,230.114451 725.895525,232.606796 C727.634155,234.943803 729.48979,237.211855 731.456536,239.405059 L731.24625,238.95183 C729.895327,235.963586 728.688648,231.724527 731.227803,229.309318 C731.468985,228.97583 731.85906,228.7473 732.311446,228.7473 C733.011069,228.7473 733.652391,229.330454 733.652391,230.088553 C733.652391,230.846652 733.069371,231.429806 732.311446,231.429806 C731.771047,231.429806 731.319565,231.103705 731.104924,230.662876 C729.147337,234.001476 732.477491,239.942851 733.454191,241.566212 C735.205763,243.4063 737.037882,245.189764 738.946803,246.91287 L738.789207,246.642855 C737.120611,243.745277 735.069971,238.923237 737.743135,236.126067 C737.973951,235.733873 738.398543,235.453564 738.899566,235.453564 C739.599189,235.453564 740.24051,236.036717 740.24051,236.794816 C740.24051,237.552916 739.657491,238.136069 738.899566,238.136069 C738.3668,238.136069 737.920456,237.84793 737.70228,237.41343 C735.666935,241.023663 739.945736,247.342272 740.753707,248.505525 C742.625726,250.11818 744.567135,251.674519 746.574613,253.171258 L746.394835,252.922727 C744.374525,250.09467 741.980644,245.530568 744.72976,242.509719 C744.778646,242.460822 744.848028,242.422174 744.925016,242.406669 C745.122477,242.288189 745.353833,242.218143 745.604289,242.218143 C746.303912,242.218143 746.945233,242.801296 746.945233,243.559395 C746.945233,244.259179 746.362214,244.900648 745.604289,244.900648 C745.124269,244.900648 744.714407,244.666739 744.478377,244.30262 C743.079606,248.092599 747.790263,253.659186 748.800343,254.786927 C751.122494,256.428493 753.527945,257.992632 756.01159,259.474445 L755.795726,259.226519 C753.599059,256.667852 751.386941,252.967727 753.475051,249.974082 C753.5595,249.847379 753.705112,249.781851 753.845441,249.799653 C754.042674,249.687868 754.27403,249.62419 754.524486,249.62419 C755.282411,249.62419 755.86543,250.207343 755.86543,250.965443 C755.86543,251.665227 755.282411,252.306695 754.524486,252.306695 C754.111258,252.274901 753.750021,252.087097 753.506917,251.80944 C752.831505,255.136485 756.555461,259.106273 758.389617,260.853877 C758.750898,261.058437 759.114748,261.261185 759.480151,261.462203 C762.009399,262.858537 764.596479,264.162319 767.235037,265.371919 L767.29717,265.395648 L767.04749,265.183917 C764.735689,263.191846 762.4786,260.385649 763.397562,257.484124 C763.423165,257.295226 763.485327,257.120409 763.577391,256.966985 L763.634506,256.879201 L763.636972,256.873579 L763.66044,256.838098 L763.689259,256.807161 C763.932677,256.513639 764.30253,256.330454 764.727326,256.330454 C765.485251,256.330454 766.06827,256.913607 766.06827,257.671706 C766.06827,258.37149 765.485251,259.012959 764.727326,259.012959 C764.414443,259.012959 764.131366,258.91358 763.906808,258.74354 C763.845288,262.10229 768.141799,265.332632 770.269266,266.711623 C779.772065,270.750626 789.89348,273.594789 800.349051,275.171175 C810.350356,273.602501 820.038494,270.871804 829.163693,267.043261 L829.469761,266.848876 C831.542757,265.512172 836.049559,262.201829 835.97861,258.784234 C835.763066,258.929414 835.501248,259.012959 835.214373,259.012959 C834.456447,259.012959 833.873428,258.37149 833.873428,257.671706 C833.873428,256.913607 834.456447,256.330454 835.214373,256.330454 C835.972298,256.330454 836.555317,256.913607 836.555317,257.671706 C836.555317,257.705693 836.554145,257.739328 836.551839,257.772574 C837.321316,260.73185 834.865775,263.586563 832.506807,265.544181 L832.866882,265.399927 C832.928414,265.375827 832.990676,265.351716 833.053623,265.327625 L832.410739,265.623457 C835.152037,264.376136 837.837907,263.02728 840.461547,261.578834 L841.204716,261.163764 L841.462371,260.929352 C843.261946,259.268253 847.123079,255.212474 846.464376,251.818363 C846.212842,252.091319 845.852649,252.27526 845.475514,252.306695 C844.717589,252.306695 844.13457,251.665227 844.13457,250.965443 C844.13457,250.207343 844.775891,249.62419 845.475514,249.62419 C845.684879,249.62419 845.880898,249.668688 846.054969,249.749079 C846.206725,249.710993 846.373717,249.77634 846.466647,249.915767 C848.725333,253.15396 845.95253,257.218771 843.609928,259.771182 C846.110065,258.283305 848.531065,256.713632 850.868913,255.06652 C850.879345,255.035185 850.895603,255.004276 850.917899,254.974533 L851.239329,254.616172 C852.414224,253.276358 856.776082,247.952852 855.475555,244.283477 L855.453914,244.316925 C855.216493,244.672854 854.811113,244.900648 854.337409,244.900648 C853.579484,244.900648 852.996465,244.259179 852.996465,243.559395 C852.996465,242.801296 853.579484,242.218143 854.337409,242.218143 C854.556599,242.218143 854.761161,242.271792 854.941224,242.364986 C855.031664,242.36663 855.128444,242.395728 855.211938,242.451404 C858.160974,245.650389 855.1918,250.68444 853.113702,253.441745 C855.115997,251.954373 857.05266,250.408558 858.921022,248.807469 C858.924304,248.748028 858.941003,248.687168 858.969372,248.63011 L859.001565,248.574514 C859.054118,248.521949 864.270146,241.504198 862.266535,237.472739 C862.038159,237.873914 861.608611,238.136069 861.100434,238.136069 C860.342509,238.136069 859.75949,237.552916 859.75949,236.794816 C859.75949,236.036717 860.400811,235.453564 861.100434,235.453564 C861.619808,235.453564 862.057049,235.754782 862.280836,236.169572 C864.948753,239.262016 862.359452,244.517194 860.710688,247.218932 L860.783031,247.171447 L861.369893,246.64124 C863.186708,244.983103 864.93325,243.269911 866.606021,241.505363 L866.749929,241.26311 C867.880375,239.337192 870.87941,233.686601 868.898629,230.513524 C868.720306,231.028081 868.230047,231.429806 867.630252,231.429806 C866.872327,231.429806 866.289307,230.846652 866.289307,230.088553 C866.289307,229.330454 866.930629,228.7473 867.630252,228.7473 C867.808759,228.7473 867.977563,228.782882 868.131334,228.846428 C868.234048,228.828629 868.349268,228.857424 868.446479,228.922246 C871.62649,231.374866 870.09825,236.194743 868.610379,239.327249 C870.501057,237.209209 872.288579,235.022476 873.967529,232.771936 L874.098914,232.49576 C875.277573,229.983137 876.888581,225.580812 875.18626,222.978401 L875.164867,223.036042 C874.977834,223.487075 874.553006,223.793956 874.03225,223.794517 L873.833061,223.787493 C873.121364,223.741698 872.585917,223.178186 872.585917,222.507559 C872.585917,221.74946 873.227238,221.166307 873.926862,221.166307 C874.1038,221.166307 874.271207,221.201266 874.423889,221.263767 C874.493388,221.272543 874.563694,221.299382 874.626485,221.341253 C877.407376,223.281855 876.906263,227.070131 875.868507,230.129223 C877.186401,228.228603 878.428589,226.285726 879.592181,224.303456 C879.598052,224.280014 879.607242,224.256736 879.619587,224.233513 L879.671391,224.138536 C880.049734,223.399607 883.670291,216.16305 881.142793,212.719372 C880.96492,213.221724 880.474193,213.597423 879.87366,213.643629 C879.115734,213.643629 878.532715,213.00216 878.532715,212.302376 C878.532715,211.544276 879.115734,210.961123 879.87366,210.961123 Z M811.951898,233.062635 L811.951898,233.119784 L812.106234,233.117568 C815.02574,233.024461 816.867287,231.03401 817.518467,230.238183 L817.490582,230.205184 L817.607865,230.127323 L817.762193,229.932515 C817.772828,229.920105 817.779468,229.913607 817.782092,229.913607 L817.85497,229.962009 L818.0153,229.855292 L818.049683,229.90548 C818.335521,230.312855 820.394883,233.062635 823.903796,233.062635 L823.903796,233.704104 C820.731835,233.704104 818.723826,231.718083 817.906,230.737253 L817.713944,230.953326 C816.825165,231.92521 814.952056,233.592358 812.173987,233.698751 L811.951898,233.704104 L811.893596,233.704104 L811.730194,233.700852 C810.143141,233.654168 808.85795,233.11092 807.878082,232.465847 L802.447196,238.021603 C803.309596,238.524058 804.384375,238.916958 805.655476,238.950203 L805.655288,238.894168 C808.646381,238.894168 810.584184,236.89609 811.268027,236.054038 L811.252275,236.036717 L811.315162,235.995365 L811.405095,235.879552 C811.497103,235.75816 811.543784,235.686825 811.543784,235.686825 L811.660388,235.764384 L811.776992,235.686825 L811.788697,235.711478 C811.812075,235.752719 811.870371,235.842189 811.9627,235.966075 L812.068502,236.036717 L812.042061,236.069056 L812.148832,236.202328 C812.900686,237.116897 814.777624,238.927514 817.606925,238.952228 L817.607186,238.894168 C821.396812,238.894168 823.495682,235.686825 823.495682,235.686825 L823.641437,235.783629 L823.787192,235.686825 C823.787192,235.743768 825.788448,238.803285 829.410984,238.947239 L829.607475,238.951901 L829.771722,238.949101 C833.425007,238.832594 835.390378,235.74514 835.44758,235.74514 L835.73909,235.278618 L835.972298,235.74514 C838.012866,239.535637 842.735323,239.593952 842.735323,239.593952 L842.735323,240.17594 L842.536592,240.167612 C841.510542,240.106947 837.723449,239.662854 835.680788,236.444924 L835.522259,236.647603 C834.695874,237.663585 832.660748,239.593952 829.559084,239.593952 L829.559084,239.533888 L829.454932,239.532323 C826.40152,239.440417 824.43055,237.460555 823.644733,236.520703 C822.876592,237.455044 820.948835,239.416669 817.88666,239.530462 L817.665488,239.535637 L817.607186,239.535637 L817.442639,239.532259 C814.422844,239.440498 812.462154,237.502178 811.659973,236.550997 L811.530362,236.701546 C810.654017,237.697842 808.725077,239.464387 805.830795,239.533544 L805.655288,239.535637 L805.655288,239.532721 L805.607431,239.532354 C804.157791,239.489507 802.960046,239.032365 802.016835,238.461831 L799.883396,240.643629 L797.692625,238.389226 C796.722064,238.999518 795.469051,239.498082 793.936762,239.533612 L793.761692,239.535637 L793.761692,239.532721 L793.713749,239.532259 C790.693954,239.440498 788.733263,237.502178 787.931083,236.550997 L787.805545,236.696912 C786.913609,237.712273 784.922885,239.535637 781.926398,239.535637 L781.926398,238.894168 C784.933109,238.894168 786.838801,236.875169 787.527,236.040942 L787.523385,236.036717 L787.538781,236.026633 L787.795078,235.705637 C787.805664,235.693289 787.812277,235.686825 787.814894,235.686825 L787.931498,235.764384 L788.048102,235.686825 L788.059807,235.711478 C788.083185,235.752719 788.141481,235.842189 788.233809,235.966075 L788.339612,236.036717 L788.313166,236.069062 L788.421279,236.203965 C789.163667,237.106454 790.998978,238.877917 793.761824,238.950202 L793.761692,238.894168 C795.157962,238.894168 796.316794,238.458765 797.226524,237.908804 L792.001105,232.531362 C791.022223,233.151291 789.758696,233.665336 788.223608,233.702011 L788.048102,233.704104 L788.048102,233.701188 L787.999187,233.700789 C785.044916,233.613051 783.13699,231.804686 782.297748,230.823158 L782.200589,230.706713 L782.018166,230.916885 C781.127035,231.915124 779.165006,233.704104 776.154506,233.704104 C772.949095,233.704104 770.932314,231.675975 770.131234,230.706562 L770.004098,230.854435 C769.185395,231.788114 767.361065,233.514383 764.552073,233.689648 L764.55242,233.704104 C764.473895,233.704104 764.396087,233.702866 764.318994,233.700438 C764.242189,233.702889 764.164452,233.704104 764.086004,233.704104 L764.085479,233.689348 C761.037398,233.495553 759.152477,231.443601 758.430716,230.555076 C756.15694,234.287257 751.551087,234.345572 751.376181,234.345572 L751.376181,233.762419 L751.543297,233.756068 C752.405392,233.708066 756.36718,233.302081 758.139206,229.913607 L758.372414,229.447084 L758.672502,229.926424 C758.818167,230.141565 760.814358,232.994494 764.319534,233.116894 C767.256635,233.014053 769.13412,230.994001 769.750978,230.215721 L769.741292,230.205184 L769.779038,230.180072 L769.897815,230.022924 C769.948754,229.952951 769.9745,229.913607 769.9745,229.913607 L770.075946,229.981253 L770.26601,229.855292 L770.370928,230.003006 C770.838573,230.632929 772.856128,233.062635 776.154506,233.062635 L776.154506,233.12095 C779.944132,233.12095 781.9847,229.913607 782.043002,229.913607 L782.14503,229.981836 L782.334512,229.855292 L782.368895,229.90548 C782.654733,230.312855 784.714095,233.062635 788.223008,233.062635 L788.223008,233.118035 L788.26074,233.117568 C789.595472,233.075002 790.704898,232.635869 791.578279,232.095624 L786.723847,227.098322 C785.695278,227.847834 784.283972,228.527874 782.510018,228.570261 L782.334512,228.572354 L782.334512,228.569438 L782.286655,228.569071 C779.195244,228.477698 777.24938,226.502229 776.474655,225.56088 L776.356152,225.702078 C775.491935,226.710697 773.511958,228.572354 770.440916,228.572354 C767.216207,228.572354 765.194483,226.519732 764.403307,225.55742 L764.21681,225.773688 C763.307625,226.796153 761.329893,228.572354 758.372414,228.572354 L758.372387,228.502787 C755.289735,228.331962 753.385214,226.261662 752.658824,225.423326 C750.385048,229.155508 745.837497,229.155508 745.604289,229.155508 L745.604289,228.514039 L745.774901,228.507492 C746.644155,228.458589 750.597672,228.049143 752.367314,224.665227 L752.600522,224.198704 L752.892031,224.665227 C752.892031,224.723542 754.990901,227.87257 758.780527,227.87257 L758.780721,227.918371 C762.312506,227.700955 764.26091,224.723542 764.26091,224.723542 L764.406665,224.820929 L764.55242,224.723542 C764.55242,224.780778 766.574273,227.815315 770.232123,227.927685 L770.440916,227.930886 C774.230542,227.930886 776.329412,224.723542 776.329412,224.723542 L776.475167,224.820346 L776.620922,224.723542 C776.620922,224.780317 778.610398,227.766717 782.212723,227.924412 L782.403891,227.929719 L782.547149,227.927503 C784.099336,227.878002 785.346824,227.292191 786.27272,226.634735 L779.728079,219.898335 L779.227018,219.383024 L752.018668,191.378834 L738.258244,220.991361 L736.9173,220.349892 L750.92026,190.248099 L725.548421,164.133909 L726.597856,163.142549 L751.568577,188.854363 L799.883396,85 L849.011527,188.336523 L873.635352,163.142549 L874.684787,164.133909 L849.669756,189.719762 L864.481947,220.87473 L863.199304,221.457883 L848.612742,190.800929 L820.05663,220.010404 L819.549807,220.527754 L813.843906,226.364202 C814.804762,227.124162 816.198817,227.872923 817.981413,227.927685 L818.190206,227.930886 C821.979832,227.930886 824.078702,224.723542 824.078702,224.723542 L824.224457,224.820346 L824.370211,224.723542 C824.370211,224.781857 826.469081,227.930886 830.258708,227.930886 L830.258708,228.572354 C827.05394,228.572354 825.037325,226.54504 824.235918,225.575397 L824.117591,225.717249 C823.253196,226.729241 821.245914,228.572354 818.190206,228.572354 C816.076053,228.572354 814.478973,227.690086 813.406734,226.81122 L808.338511,231.995267 C809.274581,232.583315 810.486902,233.062635 811.951898,233.062635 Z M842.735323,240.177106 L842.735323,240.17594 L842.793625,240.177106 L842.735323,240.177106 Z M764.086004,235.278618 L764.377514,235.74514 C764.377514,235.80133 766.326131,238.781116 769.858281,238.998317 L769.857896,238.894168 C772.848989,238.894168 774.786792,236.89609 775.470635,236.054038 L775.454883,236.036717 L775.518684,235.994215 L775.608258,235.878819 C775.699899,235.757873 775.746392,235.686825 775.746392,235.686825 L775.862996,235.764384 L775.9796,235.686825 L775.991305,235.711478 C776.014683,235.752719 776.072979,235.842189 776.165308,235.966075 L776.27111,236.036717 L776.244718,236.068993 L776.34947,236.199825 C777.105104,237.119945 779.003587,238.952484 781.868096,238.952484 L781.868096,239.535637 C778.68134,239.535637 776.669419,237.531047 775.858934,236.555128 L775.725503,236.70987 C774.869802,237.680548 773.023609,239.369584 770.266742,239.524222 L770.26601,239.652268 C766.942799,239.652268 764.902231,237.436285 764.144306,236.50324 C761.87053,240.11879 757.322979,240.177106 757.089771,240.177106 L757.089771,239.593952 L757.256887,239.587601 C758.118982,239.5396 762.080771,239.133615 763.852796,235.74514 L764.086004,235.278618 Z M799.416981,210.028078 C792.186498,210.028078 785.260173,213.273177 780.623325,218.770489 L799.883396,238.602592 L800.853182,237.611147 L800.847468,237.606178 L801.2651,237.174324 L801.273073,237.180864 L806.749673,231.577133 L806.714696,231.544431 L807.15578,231.088335 L807.193635,231.122484 L812.376502,225.819446 L812.319259,225.754347 L812.744767,225.314739 L812.804031,225.381922 L818.683172,219.367201 C814.03219,213.508784 806.954873,210.028078 799.416981,210.028078 Z M849.206838,234.345572 L849.206838,234.344406 L849.26514,234.345572 L849.206838,234.345572 Z M842.210606,229.5054 L842.443813,229.971922 C844.484381,233.762419 849.206838,233.820734 849.206838,233.820734 L849.206838,234.344406 L849.008108,234.336079 C847.982058,234.275413 844.194964,233.831321 842.152304,230.613391 L841.993774,230.816069 C841.167389,231.832052 839.132263,233.762419 836.0306,233.762419 L836.0306,233.179266 C839.820226,233.179266 841.860794,229.971922 841.919096,229.971922 L842.210606,229.5054 Z M829.923471,229.962009 L830.083802,229.855292 L830.118185,229.90548 C830.404023,230.312855 832.463385,233.062635 835.972298,233.062635 L835.972298,233.704104 C832.841207,233.704104 830.808268,231.713247 829.978794,230.733678 L829.854137,230.875259 C828.967578,231.863949 826.97235,233.704104 823.962098,233.704104 L823.962098,233.12095 C826.987073,233.12095 828.93476,231.077348 829.597593,230.252653 L829.559084,230.205184 L829.716508,230.100252 L829.850594,229.913607 L829.923471,229.962009 Z M855.56175,229.155508 L855.56175,229.154341 L855.620052,229.155508 L855.56175,229.155508 Z M848.565517,224.198704 L848.798725,224.665227 C850.839293,228.455724 855.56175,228.514039 855.56175,228.514039 L855.56175,229.154341 L855.363019,229.146014 C854.336969,229.085349 850.549876,228.641256 848.507215,225.423326 L848.405656,225.554692 C847.618607,226.543902 845.561024,228.514039 842.385511,228.514039 L842.385511,228.572354 C839.221442,228.572354 837.178778,226.539339 836.366198,225.571316 L836.248167,225.712989 C835.385639,226.724058 833.377012,228.572354 830.317009,228.572354 L830.317009,227.930886 C834.106636,227.930886 836.147204,224.723542 836.205506,224.723542 L836.35126,224.820346 L836.497015,224.723542 C836.497015,224.781857 838.595885,227.930886 842.385511,227.930886 L842.385511,227.87257 C846.175138,227.87257 848.274007,224.665227 848.274007,224.665227 L848.565517,224.198704 Z M782.403891,227.929719 L782.334512,227.930886 L782.422337,227.93033 L782.403891,227.929719 Z M828.517229,148.565464 L811.05582,212.067552 C814.911109,214.635566 817.620909,216.897835 819.18522,218.854358 L847.954513,189.418272 L838.99467,170.586501 L815.858128,215.742981 L815.216807,215.393089 L838.600549,169.758423 L828.517229,148.565464 Z M761.228043,171.562117 L752.666986,189.985097 L780.130586,218.263305 C781.349089,216.837979 782.713803,215.560449 784.19337,214.447544 L761.228043,171.562117 Z M771.446041,149.57432 L761.59826,170.765529 L784.746596,214.042884 C786.04772,213.117611 787.431525,212.316532 788.877846,211.650469 L771.446041,149.57432 Z M800.174323,88.9951836 L800.174672,209.339698 C803.763198,209.447758 807.237794,210.321086 810.391725,211.844269 L828.007553,147.782453 L828.165085,147.826026 L817.523814,125.460346 L805.771892,210.261339 L805.013967,210.203024 L816.969946,124.295788 L800.174323,88.9951836 Z M799.4747,89.2605184 L783.067367,124.567538 L794.986033,210.203024 L794.228108,210.261339 L782.515831,125.753672 L771.899047,148.59987 L789.524381,211.363505 C792.619447,210.040757 795.980441,209.328294 799.416981,209.328294 L799.4747,209.328877 L799.4747,89.2605184 Z" transform="translate(-707 -85)"/>
</svg>
