<svg xmlns="http://www.w3.org/2000/svg" width="142" height="240" viewBox="0 0 142 240">
  <path fill="#FFF" d="M786.065898,90 C817.564638,90 843.131797,115.588423 843.131797,146.999362 C843.131797,162.370802 836.867204,177.141543 825.876101,187.842544 L825.541592,188.165567 L825.64386,188.267717 L825.192095,188.626573 C820.93639,192.043605 788.25446,218.91626 787.560024,235.491816 L787.548794,236.022558 L787.548794,249.557353 L830.50162,269.527559 L871,267.382422 L871,269.272186 L840.626215,270.855501 L796.701837,308.90615 L789.747569,330 L783.151242,324.02426 L783.151242,305.53522 L755.027368,297.005746 L733.85776,251.293892 L766.07238,257.116408 L771.901692,272.540966 L773.333453,272.489891 L785.503421,250.374548 L785.503421,236.737604 C785.503421,220.039365 751.463166,192.222895 747.779096,189.241509 L747.459489,188.982762 L747.408354,188.931688 C735.698596,178.154927 729,162.883592 729,146.999362 C729,115.537348 754.618293,90 786.065898,90 Z M785.247749,318.15067 L785.247749,323.25814 L788.980555,326.62907 L791.639539,318.508193 L785.247749,318.15067 Z M785.247749,306.199191 L785.247749,317.129176 L791.946345,317.537774 L794.758732,309.110449 L785.247749,306.199191 Z M779.92978,302.521813 L795.730284,307.322835 L799.46309,304.054054 L779.92978,302.521813 Z M762.083903,297.107895 L775.634498,301.244946 L800.588045,303.185784 L804.576521,299.66163 L762.083903,297.107895 Z M755.231905,292.562247 L756.561397,295.42243 L758.044292,295.882103 L805.650342,298.742286 L810.201296,294.809534 L755.231905,292.562247 Z M752.930861,287.659076 L754.771696,291.591828 L811.275117,293.890189 L817.206698,288.78272 L752.930861,287.659076 Z M823.956428,282.90913 L750.885488,283.113428 L752.521786,286.586508 L818.331653,287.761226 L823.956428,282.90913 Z M830.655023,277.137689 L749.24919,279.640349 L750.425279,282.194084 L825.081383,281.93871 L830.655023,277.137689 Z M837.558156,271.110875 L747.510623,275.860821 L748.788981,278.618855 L831.779978,276.116195 L837.558156,271.110875 Z M740.147281,259.976591 L746.590205,273.971058 L769.958588,272.745265 L766.123515,262.5814 L740.147281,259.976591 Z M751.294562,262.019579 C754.260353,262.019579 756.7148,264.420089 756.7148,267.433496 C756.7148,270.446904 754.260353,272.847414 751.294562,272.847414 C748.277638,272.847414 745.874325,270.395829 745.874325,267.433496 C745.874325,264.420089 748.328772,262.019579 751.294562,262.019579 Z M785.60569,252.417536 L774.611811,272.438817 L785.60569,271.876995 L785.60569,252.417536 Z M751.038891,268.199617 L748.686712,271.008725 C749.354867,271.485422 750.156653,271.784153 751.008922,271.86339 L751.192294,271.876995 L751.038891,268.199617 Z M751.4991,268.097468 L751.703637,271.82592 C752.720941,271.729147 753.646458,271.311495 754.349754,270.616391 L754.46489,270.497978 L751.4991,268.097468 Z M787.599928,251.498191 L787.599928,271.774846 L804.525387,270.906576 L787.599928,251.498191 Z M788.469211,251.038519 L805.752611,270.804426 L828.405113,269.629708 L788.469211,251.038519 Z M750.578682,267.944243 L746.897011,268.097468 C747.089517,269.058874 747.5085,269.929794 748.15396,270.582486 L748.277638,270.702277 L750.578682,267.944243 Z M755.692114,267.68887 L751.959309,267.842094 L754.771696,270.140455 C755.334174,269.476484 755.640979,268.608215 755.692114,267.68887 Z M747.612892,264.981911 C747.133507,265.604384 746.878835,266.406416 746.848873,267.261755 L746.845877,267.433496 L746.845877,267.68887 L750.680951,267.484571 L747.612892,264.981911 Z M754.362622,264.215791 L751.703637,267.382422 L755.743248,267.229198 C755.692114,266.05448 755.180771,264.981911 754.362622,264.215791 Z M750.783219,263.041073 C749.709399,263.138579 748.728761,263.654919 748.0192,264.456827 L747.919698,264.573313 L750.987757,267.075974 L750.783219,263.041073 Z M751.243428,262.989998 L751.447965,266.92275 L753.953547,263.909342 C753.186532,263.347521 752.266115,262.989998 751.243428,262.989998 Z M739.277998,258.086827 L739.635938,259.006172 L765.71444,261.610981 L765.612171,261.304533 L747.71516,259.159396 L747.664026,259.159396 C747.625675,259.159396 747.587324,259.130666 747.548974,259.116301 L747.510623,259.108321 L744.595967,258.750798 C744.544833,258.750798 744.493698,258.801873 744.442564,258.801873 C744.401656,258.801873 744.328023,258.769185 744.274025,258.72996 L744.238027,258.699723 L739.277998,258.086827 Z M764.078142,258.801873 L763.362261,260.487338 L765.458768,260.742711 L764.99856,259.465844 L764.589485,258.904022 L764.078142,258.801873 Z M761.316889,258.291126 L760.243068,260.129815 L762.646381,260.436263 L761.777098,258.393275 L761.316889,258.291126 Z M758.146561,257.729304 L757.07274,259.721217 L759.476053,260.027665 L758.453367,257.780379 L758.146561,257.729304 Z M762.390709,258.44435 L763.055456,260.027665 L763.617933,258.699723 L762.390709,258.44435 Z M759.066979,257.831454 L759.885128,259.721217 L760.805546,258.188976 L759.066979,257.831454 Z M754.873965,257.116408 L754.055816,259.363694 L756.305726,259.619068 L755.129636,257.167482 L754.873965,257.116408 Z M755.692114,257.269632 L756.663666,259.363694 L757.635218,257.627155 L755.692114,257.269632 Z M752.163846,256.656735 L751.959309,256.656735 L751.038891,259.057246 L753.339935,259.31262 L752.163846,256.656735 Z M748.993518,255.992764 L748.021966,258.597574 L750.374145,258.904022 L749.198055,256.094914 L748.993518,255.992764 Z M752.726323,256.758885 L753.697875,258.852947 L754.362622,257.014258 L752.726323,256.758885 Z M745.618653,255.430943 L744.800504,258.240051 L747.254951,258.546499 L745.82319,255.482017 L745.618653,255.430943 Z M749.811667,256.197063 L750.732085,258.44435 L751.447965,256.503511 L749.811667,256.197063 Z M746.385668,255.584167 L747.612892,258.240051 L748.482175,255.992764 L746.385668,255.584167 Z M742.652863,254.920196 L742.49946,254.920196 L741.732445,257.933603 L744.033489,258.188976 L742.652863,254.920196 Z M743.21534,255.022345 L744.442564,257.831454 L745.158444,255.379868 L743.21534,255.022345 Z M739.431401,254.307299 L738.766655,256.963184 L739.022326,257.57608 L741.067699,257.831454 L739.584804,254.358374 L739.431401,254.307299 Z M740.198416,254.511598 L741.425639,257.320707 L742.039251,254.818046 L740.198416,254.511598 Z M737.386028,253.949777 L738.459849,256.299213 L738.971192,254.256225 L737.386028,253.949777 Z M795.576882,240.057459 C796.494458,240.057459 797.092762,240.239689 797.371791,240.389015 L797.417717,240.414982 L797.162045,241.232177 C796.804105,241.027878 796.241628,240.874654 795.576882,240.874654 C793.736046,240.874654 792.508822,242.049372 792.611091,244.143435 C792.611091,246.084273 793.736046,247.310066 795.628016,247.310066 C796.190493,247.310066 796.752971,247.224232 797.157903,247.052564 L797.264314,247.003618 L797.468851,247.820813 L797.301167,247.880167 C796.876812,248.02192 796.222452,248.178336 795.372344,248.178336 C793.173569,248.178336 791.486136,246.748244 791.486136,244.194509 C791.486136,241.742924 793.122434,240.057459 795.576882,240.057459 Z M806.468491,240.006384 C808.616133,240.006384 809.996759,241.640775 809.996759,243.990211 C809.996759,246.69717 808.360461,248.127261 806.366223,248.127261 C804.32085,248.127261 802.837955,246.492871 802.837955,244.143435 C802.837955,241.640775 804.423118,240.006384 806.468491,240.006384 Z M780.952467,240.159608 L780.952467,247.974037 L779.92978,247.974037 L779.92978,240.159608 L780.952467,240.159608 Z M767.759813,240.108534 L770.265394,244.09236 C770.655875,244.677398 770.963526,245.221069 771.241057,245.736536 L771.697155,246.59502 L771.673659,246.340533 C771.609209,245.579201 771.597491,244.832234 771.59536,243.970348 L771.594887,240.108534 L772.566439,240.108534 L772.566439,247.922962 L771.543752,247.922962 L769.038171,243.939136 C768.546003,243.1794 768.092985,242.419664 767.713372,241.659928 L767.555275,241.334326 L767.504141,241.334326 L767.556843,242.380912 C767.57923,242.879951 767.596981,243.407766 767.603605,244.022706 L767.60641,244.552032 L767.60641,247.922962 L766.634858,247.922962 L766.634858,240.108534 L767.759813,240.108534 Z M806.584809,240.873804 L806.468491,240.874654 C804.781059,240.874654 803.96291,242.406895 803.96291,244.143435 C803.96291,245.8289 804.883327,247.310066 806.468491,247.310066 C808.053655,247.310066 808.974073,245.8289 808.974073,244.041285 C808.974073,242.494791 808.193535,240.89957 806.584809,240.873804 Z M777.015124,229.178549 C778.446885,229.178549 779.469571,229.484997 780.185452,230.148968 C780.850198,230.761864 781.259273,231.681209 781.259273,232.958076 C781.259273,234.234944 780.850198,235.307512 780.185452,236.022558 C779.469571,236.737604 778.242348,237.146201 776.708318,237.146201 C776.07198,237.146201 775.516447,237.105846 775.041718,237.061007 L774.867483,237.044052 L774.867483,229.331773 C775.481095,229.229623 776.196975,229.178549 777.015124,229.178549 Z M794.861001,229.229623 L797.519986,237.044052 L796.446165,237.044052 L795.628016,234.592466 L792.866763,234.592466 L792.048614,237.044052 L790.974793,237.044052 L793.633777,229.229623 L794.861001,229.229623 Z M777.015124,229.995744 C776.60605,229.995744 776.262427,230.028432 776.010437,230.067657 L775.839035,230.097893 L775.839035,236.277931 C776.094707,236.329006 776.452647,236.329006 776.861721,236.329006 C779.009363,236.329006 780.185452,235.103213 780.185452,233.009151 C780.185452,231.170462 779.162766,229.995744 777.015124,229.995744 Z M794.247389,230.148968 L794.140327,230.501702 C794.064824,230.771042 793.99741,231.048461 793.919885,231.31578 L793.838315,231.579059 L793.0713,233.826346 L795.423479,233.826346 L794.656464,231.579059 L794.432751,230.844861 C794.362441,230.60864 794.298524,230.378804 794.247389,230.148968 Z M784.685272,92.0429879 L784.378466,92.0429879 L783.980756,92.1694594 C780.899684,93.1733439 775.169175,95.5883015 769.344977,100.623537 C755.322413,112.758885 751.573781,130.60088 750.904824,143.593727 L750.885488,143.985954 C750.885488,144.190253 750.374145,166.56097 765.203097,187.246223 L766.048497,188.498414 C769.443809,193.560526 781.793115,212.448521 785.707958,226.47159 C784.838675,205.837412 780.645661,189.697808 780.594526,189.493509 L780.22332,188.190148 C774.260457,167.086897 773.18005,155.067121 773.18005,154.967014 C771.003263,130.59519 774.43955,114.533046 777.783122,105.29385 L777.884408,105.015961 C780.389989,98.0698021 783.151242,93.9838263 784.685272,92.0429879 Z M788.418077,92.0429879 L788.645412,92.334915 C790.214503,94.3793368 792.832673,98.3981394 795.218941,104.964886 L795.418624,105.524841 C798.650221,114.712588 802.008835,130.46481 799.987534,154.179941 L799.899631,155.176304 C799.714369,157.031615 798.356127,168.713248 792.880029,188.13613 L792.493239,189.503672 C792.209099,190.622127 788.238596,206.454905 787.395391,226.420515 C788.952745,220.800506 792.089486,213.65225 796.805616,205.169479 L797.538387,203.859167 C802.695106,194.703894 807.748383,187.396382 807.797983,187.297297 C821.797169,167.788561 822.173328,146.833218 822.168803,144.250356 L822.166727,143.985954 C821.604249,130.961907 817.871444,112.881464 803.707238,100.623537 C797.673389,95.4139179 791.741808,93.0134071 788.776017,92.0429879 C788.673749,92.0429879 788.57148,91.9919132 788.418077,92.0429879 Z M780.901332,92.2472867 C752.981995,94.8520962 731.045373,118.397531 731.045373,146.999362 C731.045373,162.321771 737.488297,177.082358 748.788981,187.450521 L749.206237,187.78033 C752.905421,190.727857 776.079366,209.668014 784.531869,226.165142 C779.980915,210.38306 764.589485,188.063418 764.384948,187.808044 C749.300324,166.816344 749.862802,144.139179 749.862802,143.93488 C750.476413,130.706533 754.260353,112.319642 768.731365,99.8574165 C773.231185,95.9757395 777.67987,93.6263035 780.901332,92.2472867 Z M792.35542,92.3494361 C795.576882,93.7284529 799.923299,96.0778889 804.32085,99.8574165 C818.842996,112.319642 822.575801,130.706533 823.189413,143.93488 L823.191082,144.389987 C823.173663,147.667393 822.530031,168.030596 809.104788,187.190425 L808.640649,187.848647 C807.924694,188.921187 793.587757,209.879464 788.827152,225.245797 C796.864055,209.834916 817.655971,192.260616 823.184228,187.775266 L823.649622,187.399447 L823.598488,187.348372 C834.796903,176.980209 841.239827,162.270696 841.239827,146.999362 C841.239827,118.755054 819.814548,95.4139179 792.35542,92.3494361 Z M787.139719,91.9408385 L785.96363,91.9408385 L785.801528,92.1316241 C784.45519,93.7400396 781.536122,97.8036656 778.866345,105.015795 L778.753691,105.322409 C775.463198,114.322792 772.022354,130.081047 774.037721,154.034348 L774.124109,155.032475 C774.311132,156.933461 775.693958,168.763611 781.278188,188.48304 L781.471548,189.166483 C781.673317,189.961088 785.524897,205.214301 786.577242,224.73505 C787.589701,204.964546 791.508932,189.599173 791.636831,189.145169 L791.639539,189.135986 C797.877926,167.276016 799.002881,154.864865 799.002881,154.762715 C801.150522,130.400085 797.673389,114.413705 794.349658,105.322409 L794.120997,104.708716 C791.37001,97.4340732 788.383527,93.3819732 787.139719,91.9408385 Z" transform="translate(-729 -90)"/>
</svg>
