<svg xmlns="http://www.w3.org/2000/svg" width="186" height="240" viewBox="0 0 186 240">
  <path fill="#FFF" d="M824.184326,315.162397 L824.312399,315.19355 C824.312399,315.393279 824.21256,315.593007 824.21256,315.792735 C824.21256,315.892599 824.21256,315.992463 824.312399,316.092327 C824.21256,316.39192 823.913043,316.092327 823.713366,316.192191 C823.513688,316.491784 823.214171,316.591648 822.914654,316.691512 C822.615137,316.791376 822.31562,316.791376 822.016103,316.991104 L821.990219,317.013296 C821.960637,317.035488 821.916264,317.05768 821.916264,316.991104 C821.716586,316.89124 821.516908,317.090968 821.31723,317.190832 C821.117552,317.290697 821.017713,317.290697 820.818035,317.390561 C820.718196,317.490425 820.618357,317.490425 820.41868,317.590289 L820.322538,317.593988 C820.263374,317.601385 820.219002,317.623577 820.219002,317.690153 L820.019324,317.690153 C819.819646,317.989745 819.320451,317.989745 819.020934,318.089609 C818.721417,318.289338 818.322061,318.389202 818.022544,318.489066 C817.648148,318.638862 817.217593,318.788658 816.815117,318.938454 L816.425121,319.08825 C816.125604,319.188114 815.826087,319.487707 815.426731,319.387843 L815.326892,319.487707 C815.227053,319.487707 815.127214,319.587571 815.027375,319.587571 C814.827697,319.787299 814.727858,319.887163 814.428341,319.887163 C814.228663,319.887163 814.028986,319.987027 813.829308,320.086891 L813.62963,320.086891 C813.429952,319.987027 813.230274,319.987027 813.130435,320.186756 C812.830918,320.386484 812.63124,320.386484 812.531401,320.586212 C812.331723,320.885804 812.032206,320.885804 811.832528,320.985668 C811.433172,321.185397 811.033816,321.385125 810.634461,321.484989 C810.334944,321.584853 810.135266,321.684717 809.835749,321.784581 C809.636071,321.884445 809.436393,321.884445 809.236715,321.984309 L809.040735,321.988008 C808.915012,321.995405 808.804079,322.017597 808.73752,322.084173 C808.637681,322.184038 808.637681,322.283902 808.537842,322.283902 L808.438003,322.283902 C808.438003,322.184038 808.537842,322.184038 808.537842,322.084173 C808.238325,321.984309 808.138486,322.084173 807.938808,322.583494 C807.73913,322.683358 807.539452,322.683358 807.339775,322.783222 C806.940419,322.883086 806.640902,323.082814 806.341385,323.182679 L805.742351,323.482271 C805.542673,323.582135 805.442834,323.681999 805.243156,323.781863 C805.143317,323.781863 805.043478,323.881727 805.043478,323.881727 C804.743961,323.881727 804.544283,323.981591 804.344605,324.18132 C804.244767,324.281184 804.144928,324.281184 804.045089,324.281184 C803.645733,324.281184 803.446055,324.68064 803.046699,324.580776 C802.94686,324.580776 802.747182,324.68064 802.647343,324.780504 C802.547504,324.880368 802.447665,324.880368 802.347826,324.980232 C802.048309,325.080097 801.848631,325.080097 801.748792,324.780504 L801.748792,325.179961 C801.449275,325.279825 801.249597,325.479553 800.950081,325.579417 C800.650564,325.679281 800.351047,325.579417 800.151369,325.579417 C800.05153,325.879009 799.951691,326.078738 799.652174,326.178602 C799.352657,326.278466 799.05314,326.37833 798.753623,326.578058 C798.354267,326.777786 798.05475,326.977514 797.655395,327.177243 C797.555556,327.277107 797.455717,327.376971 797.355878,327.376971 C797.206119,327.451869 797.11252,327.470593 796.990841,327.517405 L796.856683,327.576699 C796.657005,327.676563 796.557166,327.676563 796.357488,327.776427 L796.080966,327.866683 C795.837918,327.949661 795.573039,328.061753 795.359098,328.275748 C795.18438,328.363129 795.009662,328.374052 794.834944,328.57612 L794.760064,328.675204 C794.660225,328.874932 794.26087,328.974796 793.961353,329.074661 C793.561997,329.274389 793.062802,329.474117 792.663446,329.673845 C792.363929,329.773709 792.164251,329.873573 791.864734,329.973438 C791.465378,330.073302 791.165862,329.873573 790.966184,329.673845 C790.766506,329.474117 790.866345,329.174525 790.966184,328.974796 C790.966184,328.775068 791.165862,328.775068 791.365539,328.675204 C791.565217,328.57534 791.764895,328.57534 791.964573,328.475476 C792.039452,328.475476 792.170491,328.419302 792.27345,328.391216 L792.363929,328.375612 C792.463768,328.375612 792.563607,328.275748 792.663446,328.275748 C792.863124,328.275748 792.962963,328.175884 793.162641,328.175884 L793.362319,328.175884 C793.661836,327.776427 794.161031,327.676563 794.660225,327.576699 C794.859903,327.476835 795.059581,327.277107 795.359098,327.177243 C795.425658,327.110667 795.53659,327.088475 795.662313,327.081077 L795.958132,327.077379 C796.357488,326.677922 796.756844,326.578058 797.256039,326.37833 C797.355878,326.37833 797.355878,326.278466 797.455717,326.37833 C797.855072,326.478194 797.954911,326.178602 798.154589,325.978873 C798.234461,325.898982 798.250435,325.883004 798.304747,325.879808 L798.354267,325.879009 C798.653784,325.879009 798.853462,325.779145 798.953301,325.479553 C799.05314,325.279825 799.352657,325.279825 799.552335,325.179961 C800.151369,324.980232 800.750403,324.68064 801.249597,324.480912 C801.349436,324.381048 801.549114,324.381048 801.748792,324.381048 L801.867945,324.457957 C802.055398,324.568958 802.094389,324.503957 802.347826,324.081455 C802.447665,324.18132 802.647343,324.281184 802.647343,323.981591 C802.647343,323.91026 802.749219,323.889879 802.880204,323.884056 L803.046699,323.881727 C803.146538,323.881727 803.246377,323.881727 803.346216,323.781863 L804.14123,323.386105 C804.266953,323.326927 804.377885,323.282543 804.444444,323.282543 L804.544283,323.282543 C804.743961,322.883086 805.043478,322.98295 805.442834,322.883086 C805.642512,322.883086 805.942029,322.783222 806.041868,322.583494 L806.108427,322.520206 C806.18608,322.45404 806.263732,322.42815 806.341385,322.583494 C806.441224,322.683358 806.541063,322.683358 806.640902,322.583494 C806.84058,322.48363 807.040258,322.283902 807.239936,322.184038 C807.339775,322.184038 807.439614,322.184038 807.539452,322.283902 L807.54315,322.254312 C807.548697,322.226572 807.562563,322.182188 807.59723,322.133643 L807.639291,322.084173 C807.73913,321.984309 807.73913,321.884445 807.838969,321.884445 C808.038647,321.784581 808.338164,321.784581 808.537842,321.684717 C808.837359,321.584853 809.037037,321.385125 809.336554,321.285261 C809.73591,321.085532 810.135266,320.985668 810.534622,320.985668 L810.7343,320.985668 C811.033816,320.78594 811.333333,320.586212 811.63285,320.486348 C811.712721,320.406457 811.85649,320.390478 812.013037,320.336152 L812.132045,320.28662 C812.331723,320.186756 812.431562,320.186756 812.63124,320.086891 C813.030596,319.987027 813.330113,319.787299 813.729469,319.787299 C813.895867,319.787299 814.062265,319.648599 814.228663,319.544574 L814.328502,319.487707 C814.52818,319.387843 814.628019,319.287979 814.827697,319.188114 C814.927536,319.188114 815.027375,319.587571 815.127214,319.188114 C815.426731,319.188114 815.626409,318.788658 816.025765,318.888522 C816.125604,318.888522 816.225443,318.788658 816.425121,318.688794 C816.924316,318.489066 817.323671,318.289338 817.822866,318.089609 L818.506564,317.73649 C818.83723,317.566321 819.160709,317.410533 819.520129,317.290697 C819.819646,317.190832 820.119163,317.090968 820.41868,316.791376 C820.41868,316.7248 820.507425,316.702608 820.566589,316.695211 L820.618357,316.691512 C821.117552,316.691512 821.616747,316.292056 822.016103,316.092327 C822.31562,315.992463 822.515298,315.892599 822.814815,315.692871 C823.014493,315.593007 823.31401,315.393279 823.513688,315.293414 C823.68484,315.207817 823.929344,315.122219 824.184326,315.162397 Z M801.94847,309.900753 C801.848631,310.300209 801.648953,310.699666 801.549114,311.099122 L801.435697,311.303644 C801.385378,311.39472 801.349436,311.478606 801.349436,311.598443 C801.149758,311.997899 800.950081,312.49722 800.850242,312.896676 C800.650564,313.296132 800.550725,313.795453 800.351047,314.194909 C800.276167,314.494502 800.145129,314.73792 800.04217,315.009426 L799.951691,315.293414 C799.951691,315.792735 799.652174,316.192191 799.552335,316.691512 C799.452496,317.190832 799.452496,317.590289 799.352657,318.089609 C799.352657,318.189473 799.252818,318.289338 799.252818,318.389202 C799.252818,318.688794 799.152979,318.888522 799.152979,319.188114 C799.152979,319.387843 799.152979,319.487707 798.953301,319.587571 L798.918158,319.593962 C798.889404,319.603549 798.853462,319.627517 798.853462,319.687435 C798.653784,320.086891 798.354267,319.987027 798.05475,319.987027 C797.954911,319.987027 797.855072,319.887163 797.855072,319.887163 L797.855072,319.08825 C797.954911,318.788658 797.954911,318.489066 798.05475,318.189473 C798.154589,317.690153 798.354267,317.290697 798.553945,316.89124 L798.553945,316.791376 C798.753623,316.192191 798.853462,315.493143 799.05314,314.893958 C799.252818,314.294773 799.452496,313.695589 799.851852,313.096404 C799.951691,312.896676 800.05153,312.696948 800.05153,312.397356 C800.151369,312.597084 800.251208,312.597084 800.251208,312.597084 L800.251208,312.297491 L800.850242,310.79953 C800.950081,310.599802 801.049919,310.499938 801.349436,310.499938 L801.549114,310.499938 L801.549114,310.400073 C801.449275,310.400073 801.449275,310.400073 801.349436,310.300209 C801.436795,310.038066 801.677033,310.081757 801.869496,309.962973 L801.94847,309.900753 Z M824.215186,315.148983 L824.305411,315.190554 L824.150377,315.134127 C824.093669,315.109367 824.131474,315.114319 824.215186,315.148983 Z M816.724638,302.410945 C817.024155,302.410945 817.323671,302.510809 817.523349,302.710538 L817.623188,302.810402 C818.222222,303.209858 818.322061,303.709179 818.322061,304.408227 C818.322061,305.007412 818.222222,305.606597 818.122383,306.105917 L818.122383,306.205781 C817.723027,306.605238 817.723027,307.304286 817.42351,307.803607 C817.223833,308.003335 817.123994,308.203063 816.924316,308.402791 C816.724638,308.60252 816.52496,308.702384 816.425121,308.802248 C816.325282,308.902112 816.225443,309.10184 816.125604,309.301568 L815.663849,309.913236 C815.50161,310.125447 815.326892,310.350141 815.127214,310.599802 C815.027375,310.79953 814.727858,310.899394 814.628019,310.999258 C814.428341,311.198986 814.328502,311.398715 814.128824,311.498579 C813.829308,311.798171 813.62963,312.097763 813.330113,312.297491 C813.030596,312.597084 812.63124,312.796812 812.431562,313.096404 C812.231884,313.395997 811.932367,313.595725 811.63285,313.795453 C811.552979,313.875344 811.345314,313.955236 811.214325,314.035127 L811.133655,314.095045 C811.033816,314.194909 810.933977,314.194909 810.834138,314.294773 C810.634461,314.594366 810.334944,314.69423 810.035427,314.794094 L809.935588,314.794094 C809.636071,314.69423 809.436393,314.794094 809.236715,314.993822 C809.136876,315.093686 808.837359,315.093686 808.637681,315.093686 C808.537842,315.093686 808.338164,314.993822 808.238325,315.093686 C808.138486,315.19355 807.938808,314.993822 807.73913,314.993822 C807.639291,314.993822 807.639291,314.893958 807.539452,314.893958 C807.040258,314.993822 806.84058,314.594366 806.541063,314.294773 L806.511481,314.291075 C806.474503,314.283677 806.407944,314.261485 806.341385,314.194909 C806.441224,314.095045 806.541063,314.095045 806.640902,314.095045 C806.441224,313.995181 806.341385,313.795453 806.141707,313.995181 L805.942029,313.795453 C805.84219,313.595725 805.742351,313.296132 805.642512,313.096404 C805.542673,312.796812 805.342995,312.597084 805.243156,312.297491 C805.143317,312.097763 805.243156,311.798171 805.342995,311.498579 C805.342995,311.29885 805.442834,311.099122 805.542673,310.999258 C805.542673,310.899394 805.642512,310.899394 805.642512,310.79953 C805.742351,310.599802 805.742351,310.400073 805.742351,310.200345 C805.742351,309.900753 805.942029,309.601161 806.041868,309.301568 C806.041868,309.201704 806.141707,309.10184 806.141707,309.001976 C806.141707,308.902112 806.141707,308.702384 806.241546,308.60252 L806.241546,308.802248 L806.341385,308.802248 C806.441224,308.702384 806.441224,308.302927 806.341385,308.103199 L806.341385,308.003335 C806.441224,307.953403 806.541063,307.928437 806.640902,307.903471 L806.744734,307.87451 L806.707195,307.988156 C806.624528,308.236218 806.549948,308.480236 806.492554,308.73841 L806.141707,310.499938 C806.341385,310.499938 806.441224,310.499938 806.541063,310.400073 L806.441224,310.300209 C806.541063,310.200345 806.640902,310.100481 806.640902,310.000617 C806.640902,309.701025 806.940419,309.601161 807.040258,309.401432 C807.140097,309.201704 807.239936,309.201704 807.339775,309.201704 C807.439614,309.201704 807.539452,309.10184 807.639291,309.10184 C807.539452,309.001976 807.539452,308.902112 807.539452,308.802248 C807.639291,308.702384 807.838969,308.702384 807.938808,308.60252 C808.338164,308.003335 808.837359,307.40415 809.636071,307.204422 L809.536232,307.104558 C809.636071,307.004694 809.73591,307.004694 809.935588,306.90483 C809.835749,306.90483 809.73591,306.804966 809.636071,306.804966 C810.035427,306.505374 810.434783,306.305645 810.834138,306.006053 L811.133655,306.006053 C811.133655,306.006053 811.133655,306.006053 811.233494,305.906189 L810.933977,305.606597 L811.233494,305.606597 L811.233494,305.406868 C811.333333,305.406868 811.433172,305.506732 811.533011,305.506732 C811.533011,305.34695 811.469114,305.25108 811.443556,305.167993 L811.433172,305.107276 C811.433172,305.107276 811.433172,305.107276 811.333333,305.007412 C811.732689,304.807684 812.032206,304.508091 812.431562,304.308363 L812.731079,304.008771 C812.930757,304.108635 813.030596,303.908907 813.230274,303.809043 C813.529791,303.609315 814.028986,303.409586 814.228663,303.109994 C814.52818,302.710538 815.027375,302.810402 815.227053,302.510809 L815.326892,302.510809 C815.826087,302.510809 816.225443,302.410945 816.724638,302.410945 Z M816.225443,303.50945 L816.173674,303.513149 C816.114511,303.520546 816.025765,303.542738 816.025765,303.609315 C815.925926,303.709179 815.826087,303.809043 815.726248,303.809043 C815.426731,303.809043 815.127214,303.908907 814.927536,304.008771 C814.628019,304.108635 814.328502,304.308363 814.128824,304.508091 C814.028986,304.508091 813.929147,304.408227 813.929147,304.408227 C813.729469,304.607956 813.62963,304.807684 813.429952,304.907548 C813.330113,304.907548 813.230274,304.807684 813.130435,304.70782 C813.130435,304.807684 813.130435,304.907548 813.230274,305.007412 C813.030596,305.20714 812.731079,305.007412 812.731079,305.20714 C812.63124,305.307004 812.431562,305.406868 812.431562,305.406868 C812.531401,305.606597 812.431562,305.606597 812.331723,305.706461 C812.231884,305.806325 812.032206,305.806325 811.932367,305.906189 C811.832528,306.305645 811.533011,306.405509 811.333333,306.505374 C810.834138,306.705102 810.534622,307.104558 810.334944,307.603879 C810.035427,307.40415 809.935588,307.903471 809.636071,307.903471 C809.436393,307.803607 809.436393,307.903471 809.436393,307.903471 C809.336554,308.003335 809.236715,308.003335 809.236715,308.103199 C809.037037,308.402791 808.837359,308.702384 808.637681,308.902112 C808.238325,309.10184 808.038647,309.501297 807.838969,309.800889 L807.777469,309.967063 C807.691208,310.168389 807.579388,310.280237 807.339775,310.200345 C807.140097,310.499938 806.84058,310.79953 806.640902,310.999258 L806.640902,311.198986 C806.441224,311.29885 806.541063,311.398715 806.640902,311.598443 C806.740741,311.698307 806.740741,311.798171 806.740741,311.898035 C806.640902,312.197627 806.541063,312.397356 806.341385,312.696948 C806.341385,312.796812 806.541063,312.796812 806.541063,312.99654 C806.740741,313.296132 806.940419,313.595725 807.339775,313.795453 C807.639291,313.895317 807.938808,314.095045 808.338164,314.095045 L809.037037,314.095045 C809.236715,314.095045 809.436393,314.095045 809.536232,313.795453 L809.571375,313.789062 C809.600129,313.779475 809.636071,313.755507 809.636071,313.695589 C810.135266,313.495861 810.534622,313.296132 810.933977,313.096404 C811.033816,313.196268 811.133655,313.196268 811.233494,313.395997 L811.233494,312.99654 C811.233494,312.896676 811.333333,312.796812 811.333333,312.796812 L811.932367,312.49722 L812.032206,312.397356 C812.231884,311.997899 812.63124,311.698307 813.030596,311.398715 C813.230274,311.29885 813.330113,311.099122 813.529791,310.899394 C813.791868,310.637251 814.130384,310.451566 814.277803,310.141636 L814.328502,310.000617 C814.328502,310.000617 814.328502,310.000617 814.428341,309.900753 C814.727858,309.601161 814.927536,309.301568 815.227053,309.001976 C815.426731,308.702384 815.52657,308.502656 815.726248,308.203063 C815.826087,308.302927 815.925926,308.402791 816.025765,308.402791 C816.025765,308.203063 815.925926,308.103199 815.925926,308.003335 C815.925926,307.903471 816.125604,307.803607 816.225443,307.703743 C816.225443,307.703743 816.225443,307.603879 816.325282,307.603879 C816.52496,307.40415 816.624799,307.004694 816.824477,306.804966 C817.024155,306.505374 816.924316,306.105917 817.223833,305.806325 C817.42351,305.606597 817.323671,305.107276 817.42351,304.807684 C817.42351,304.70782 817.523349,304.607956 817.523349,304.607956 C817.42351,304.408227 817.42351,304.208499 817.323671,304.108635 L816.924316,303.709179 C816.724638,303.609315 816.425121,303.809043 816.225443,303.50945 Z M807.376887,294.049911 L807.439614,294.122225 C807.539452,294.222089 807.539452,294.321953 807.639291,294.421817 L807.439614,294.621545 C807.439614,294.821274 807.539452,294.921138 807.838969,294.821274 C807.539452,295.520322 807.239936,296.219371 807.040258,296.91842 C807.040258,297.018284 806.940419,297.118148 806.940419,297.118148 L806.951325,297.246694 C806.954597,297.355104 806.917379,297.456149 806.640902,297.317876 L806.599369,297.353028 C806.561031,297.381789 806.501127,297.41774 806.441224,297.41774 L806.441224,297.917061 C806.441224,298.016925 806.441224,298.116789 806.241546,298.116789 C806.141707,298.116789 806.041868,298.216653 806.041868,298.316517 C806.141707,298.616109 805.942029,298.815838 805.84219,299.015566 L805.742351,299.11543 L805.442834,300.313799 C805.342995,300.513527 805.342995,300.713256 805.243156,301.012848 C805.243156,301.112712 805.143317,301.112712 805.043478,301.112712 C804.943639,301.412304 804.943639,301.811761 804.8438,302.111353 C804.760601,302.444233 804.608069,302.777114 804.443982,303.167786 L804.344605,303.409586 C804.244767,303.709179 804.045089,304.008771 803.94525,304.308363 C803.845411,304.408227 803.845411,304.607956 803.845411,304.70782 C803.745572,304.907548 803.745572,305.107276 803.645733,305.307004 L803.564814,305.458402 C803.505143,305.57195 803.47458,305.663662 803.545894,305.806325 C803.545894,305.906189 803.446055,306.105917 803.446055,306.205781 C803.346216,306.405509 803.246377,306.705102 803.146538,306.90483 C802.94686,307.304286 802.747182,307.803607 802.647343,308.203063 C802.547504,308.402791 802.647343,308.60252 802.547504,308.702384 C802.347826,308.902112 802.247987,309.10184 802.247987,309.401432 C802.148148,309.601161 802.048309,309.800889 801.748792,309.800889 C801.848631,309.800889 801.848631,309.900753 801.94847,309.900753 L801.648953,309.900753 C801.549114,309.900753 801.549114,309.800889 801.549114,309.701025 L801.648953,309.601161 C801.94847,309.601161 801.94847,309.401432 802.048309,309.201704 L802.050705,309.122612 C802.06029,308.997981 802.108213,308.822221 802.347826,308.902112 L802.333035,308.606218 C802.32564,308.413887 802.347826,308.236351 802.547504,308.103199 L802.539645,308.016728 C802.529166,307.950346 802.504716,307.860672 802.447665,307.803607 C802.347826,307.903471 802.247987,308.103199 802.148148,308.203063 C801.94847,308.103199 801.94847,307.903471 802.247987,307.703743 C802.447665,307.504015 802.647343,307.204422 802.747182,306.90483 L802.782325,306.911221 C802.811079,306.920808 802.847021,306.944776 802.847021,307.004694 C802.847021,306.90483 802.94686,306.804966 802.94686,306.705102 C802.847021,306.705102 802.847021,306.605238 802.747182,306.605238 L802.932069,305.835914 C803.057792,305.340292 803.213097,304.87426 803.545894,304.408227 L803.545894,304.607956 C803.545894,304.408227 803.645733,304.308363 803.645733,304.108635 L803.446055,304.108635 C803.645733,304.008771 803.745572,303.809043 803.94525,303.709179 C803.845411,303.709179 803.845411,303.609315 803.745572,303.50945 C803.845411,303.409586 803.94525,303.409586 803.94525,303.309722 L804.026169,303.226454 C804.085839,303.160945 804.116402,303.109994 804.045089,303.109994 C803.94525,302.810402 804.144928,302.710538 804.244767,302.410945 L804.244767,301.711897 C804.344605,301.612032 804.444444,301.512168 804.644122,301.412304 L804.514885,301.348834 C804.436294,301.31244 804.415919,301.31244 804.344605,301.31244 L804.348303,301.116411 C804.355699,300.990656 804.377885,300.879696 804.444444,300.81312 L804.557862,300.608598 C804.60818,300.517522 804.644122,300.433636 804.644122,300.313799 L804.743961,300.213935 C804.644122,299.914343 805.043478,299.61475 804.943639,299.215294 C804.8438,299.315158 804.743961,299.315158 804.743961,299.415022 C804.743961,299.814479 804.244767,299.914343 804.144928,300.313799 C804.065056,300.473582 803.985185,300.633364 803.854196,300.793147 L803.745572,300.912984 C803.645733,301.112712 803.645733,301.31244 803.545894,301.412304 C803.146538,301.911625 802.747182,302.311081 802.347826,302.810402 C802.048309,303.209858 801.648953,303.609315 801.349436,304.008771 C801.249597,304.208499 801.049919,304.308363 800.950081,304.408227 L800.750403,304.607956 L800.750403,304.70782 C800.450886,304.807684 800.351047,305.20714 800.151369,305.406868 C799.851852,305.606597 799.652174,305.906189 799.352657,306.205781 C799.152979,306.405509 798.853462,306.605238 798.653784,306.90483 L798.05475,307.504015 C797.455717,308.203063 796.756844,308.802248 795.858293,309.10184 C795.558776,309.201704 795.259259,309.201704 795.059581,309.10184 C794.959742,309.10184 794.959742,309.001976 794.859903,309.001976 C794.760064,309.001976 794.760064,309.001976 794.660225,308.902112 C794.660225,308.802248 794.760064,308.702384 794.760064,308.702384 C794.859903,308.60252 794.959742,308.502656 795.15942,308.402791 L795.758454,308.103199 C795.858293,308.103199 795.858293,308.003335 795.958132,308.003335 C796.15781,308.103199 796.357488,307.903471 796.457327,307.703743 C796.557166,307.603879 796.657005,307.603879 796.756844,307.504015 L797.063756,307.185929 C797.278225,306.971406 797.522276,306.771678 797.855072,306.705102 C797.954911,306.305645 798.454106,305.806325 798.653784,305.906189 L799.452496,305.107276 C799.539855,304.932514 799.780093,304.910669 799.838787,304.707235 L799.851852,304.607956 C799.851852,304.607956 799.851852,304.508091 799.951691,304.508091 C800.111433,304.348309 800.271176,304.252439 800.3798,304.118222 L800.450886,304.008771 C800.538245,303.834009 800.778482,303.735705 800.837177,303.513156 L800.850242,303.409586 C800.850242,303.409586 800.850242,303.309722 800.950081,303.309722 C801.149758,303.109994 801.349436,303.01013 801.549114,302.810402 L801.648953,302.710538 C801.648953,302.510809 801.748792,302.410945 801.848631,302.211217 L802.048309,302.011489 C802.247987,301.911625 802.347826,301.911625 802.547504,301.811761 C802.447665,301.512168 802.747182,301.212576 803.246377,301.112712 L802.94686,301.112712 C802.94686,301.112712 802.94686,301.112712 802.94686,301.012848 C803.246377,300.81312 803.446055,300.513527 803.545894,300.313799 C803.645733,300.114071 803.845411,300.114071 804.045089,300.014207 C804.144928,300.014207 804.144928,299.914343 804.244767,299.914343 L804.244767,299.61475 C804.144928,299.61475 804.045089,299.714615 803.94525,299.714615 L803.94525,299.61475 C804.144928,299.415022 804.244767,299.215294 804.444444,299.015566 L804.448142,298.9194 C804.455538,298.860222 804.477724,298.815838 804.544283,298.815838 C804.644122,298.616109 804.644122,298.416381 804.8438,298.316517 C805.043478,298.116789 805.143317,297.717333 805.542673,297.617468 L805.542673,297.517604 C805.442834,297.018284 805.84219,296.718691 805.942029,296.319235 C806.141707,295.72005 806.441224,295.22073 806.441224,294.621545 C806.441224,294.521681 806.541063,294.421817 806.640902,294.321953 C806.919025,294.229222 807.111062,293.792062 807.376887,294.049911 Z M806.824605,307.63983 L806.835404,307.638917 C806.899163,307.634416 806.940419,307.667429 806.940419,307.803607 C806.890499,307.828573 806.84058,307.847297 806.79066,307.862901 L806.744734,307.87451 L806.824605,307.63983 Z M808.537842,302.810402 C808.637681,303.01013 808.73752,303.309722 808.438003,303.609315 C808.338164,303.709179 808.338164,303.809043 808.338164,303.908907 C808.238325,304.208499 808.038647,304.408227 807.838969,304.607956 C807.75577,304.691176 807.741904,304.774396 807.739593,304.915408 L807.73913,305.007412 C807.73913,305.107276 807.73913,305.20714 807.639291,305.406868 C807.539452,305.706461 807.439614,305.906189 807.339775,306.205781 C807.239936,306.605238 807.040258,306.90483 806.940419,307.304286 L806.824605,307.63983 L806.794598,307.645595 L806.631131,307.692419 C806.601571,307.699158 806.571317,307.703743 806.541063,307.703743 C806.441224,307.703743 806.441224,307.603879 806.341385,307.603879 C806.416264,307.603879 806.434984,307.547705 806.481783,307.519618 L806.541063,307.504015 C806.541063,307.504015 806.640902,307.504015 806.740741,307.40415 L806.84058,307.304286 L806.640902,307.104558 L806.940419,307.104558 L806.940419,307.004694 L806.640902,307.004694 C806.640902,306.90483 806.640902,306.804966 806.740741,306.804966 C806.84058,306.505374 807.040258,306.305645 807.040258,306.006053 C807.040258,305.906189 807.140097,305.706461 807.140097,305.606597 C807.184469,305.562213 807.228842,305.517828 807.273215,305.499746 L807.296844,305.492752 L807.244728,305.448412 C807.040258,305.263064 807.040258,305.167195 807.040258,305.007412 C807.140097,305.007412 807.239936,305.107276 807.339775,305.107276 C807.339775,305.107276 807.339775,305.007412 807.439614,305.007412 C807.339775,304.907548 807.239936,304.907548 807.140097,304.807684 C807.239936,304.70782 807.439614,304.607956 807.539452,304.508091 C807.439614,304.508091 807.339775,304.408227 807.140097,304.408227 C807.239936,304.208499 807.439614,304.108635 807.439614,304.008771 L807.502013,303.877699 C807.558172,303.765352 807.614332,303.709179 807.838969,303.709179 L807.91756,303.622707 C807.973446,303.556325 808.038647,303.466652 808.038647,303.409586 C808.038647,303.309722 808.038647,303.209858 808.138486,303.209858 L808.537842,302.810402 Z M807.306495,305.491527 L807.296844,305.492752 L807.437617,305.605598 L807.406334,305.550706 C807.373054,305.505089 807.339775,305.489061 807.306495,305.491527 Z M808.937198,302.410945 C808.937198,302.510809 808.837359,302.710538 808.837359,302.810402 C808.73752,302.710538 808.73752,302.610674 808.637681,302.610674 C808.73752,302.510809 808.837359,302.510809 808.937198,302.410945 Z M811.333333,298.815838 C811.233494,298.915702 811.133655,299.015566 811.033816,299.215294 C810.933977,299.315158 810.933977,299.415022 810.933977,299.514886 C810.834138,299.61475 810.834138,299.714615 810.7343,299.814479 L810.630763,300.010508 C810.556808,300.136263 810.468062,300.247223 810.334944,300.313799 C810.235105,300.413663 810.135266,300.413663 810.135266,300.413663 C809.935588,300.912984 809.73591,301.31244 809.536232,301.811761 L809.459264,301.813953 C809.362438,301.821624 809.258901,301.856145 809.336554,302.011489 C809.336554,302.211217 809.136876,302.211217 808.837359,302.311081 C808.937198,302.111353 808.937198,302.011489 809.037037,301.911625 C809.136876,301.711897 809.136876,301.512168 809.336554,301.31244 C809.236715,301.212576 809.236715,301.112712 809.136876,301.112712 L809.436393,300.513527 C809.436393,300.588425 809.380233,300.663324 809.352154,300.738222 L809.336554,300.81312 C809.336554,300.81312 809.336554,300.81312 809.436393,300.81312 C809.536232,300.613391 809.636071,300.413663 809.835749,300.213935 C809.995491,299.974261 810.155233,299.734587 810.366093,299.494914 L810.534622,299.315158 C810.7343,299.11543 810.7343,299.015566 810.634461,298.815838 L811.333333,298.815838 Z M826.808374,277.744512 C827.706924,277.744512 828.505636,277.94424 829.304348,278.243833 C830.10306,278.543425 830.702093,279.042745 831.301127,279.841658 L830.302738,280.640571 C829.903382,280.041386 829.404187,279.542066 828.705314,279.342338 C828.10628,279.042745 827.407407,278.942881 826.808374,278.942881 C826.009662,278.942881 825.21095,279.042745 824.512077,279.342338 C823.813205,279.64193 823.214171,280.041386 822.814815,280.540707 C822.31562,281.040027 822.016103,281.639212 821.716586,282.338261 C821.417069,283.037309 821.31723,283.836222 821.31723,284.635135 C821.31723,285.334932 821.393833,286.034729 821.614138,286.667409 L822.215781,286.298497 C822.31562,286.239202 822.415459,286.183029 822.515298,286.133097 L822.648417,286.069808 C822.803722,286.003643 822.959027,285.977753 823.114332,286.133097 C823.413849,285.833504 824.21256,285.73364 824.512077,285.933368 C824.711755,286.033233 824.911433,286.033233 825.011272,286.133097 C825.21095,286.232961 825.310789,286.332825 825.510467,286.532553 C825.710145,286.732281 825.809984,286.932009 825.909823,287.131738 C826.109501,287.830786 826.109501,288.529835 825.909823,289.228884 C825.809984,289.528476 825.809984,289.828068 825.710145,290.027797 L825.636471,290.247389 C825.995339,290.304593 826.379066,290.327389 826.808374,290.327389 C827.047987,290.327389 827.351498,290.327389 827.61667,290.276259 L827.806763,290.227525 C828.13956,290.144305 828.403024,290.061085 828.654932,289.920073 L828.805153,289.828068 C829.10467,289.62834 829.504026,289.428612 829.803543,289.228884 C830.10306,289.029156 830.402576,288.629699 830.602254,288.330107 L831.700483,289.029156 C831.101449,289.828068 830.302738,290.527117 829.504026,290.826709 C828.705314,291.226166 827.806763,291.425894 826.808374,291.425894 C826.228736,291.425894 825.682751,291.358573 825.170418,291.243473 L825.057317,291.438719 C825.040451,291.469254 825.024928,291.49844 825.011272,291.525758 L825.011272,291.625622 C824.611916,291.725486 824.911433,292.224807 824.611916,292.324671 C824.512077,292.823992 824.112721,293.02372 823.813205,293.323312 L823.713366,293.423176 L823.713366,293.622904 L823.552026,293.777893 C823.453784,293.866573 823.333977,293.962442 823.214171,294.022361 C823.014493,294.022361 822.814815,294.022361 822.714976,293.822633 C822.415459,293.423176 822.415459,293.223448 822.714976,293.02372 C822.914654,292.823992 823.214171,292.724127 823.31401,292.524399 L823.553623,292.158497 C823.633494,292.032269 823.713366,291.899649 823.793237,291.754247 L823.913043,291.525758 C824.015322,291.321149 824.117601,291.142742 824.219879,290.963694 L824.112721,290.926574 C823.31401,290.626981 822.615137,290.127661 822.016103,289.528476 C821.668837,289.181123 821.355123,288.800209 821.094413,288.366278 L820.916319,288.575114 C820.857461,288.637599 820.795265,288.691019 820.718196,288.729563 C820.41868,288.829427 820.318841,289.029156 820.119163,289.228884 C820.019324,289.328748 819.819646,289.228884 819.719807,289.428612 C819.619968,289.62834 819.320451,289.828068 819.120773,289.927933 L819.020934,289.828068 C818.821256,290.027797 818.621578,290.227525 818.322061,290.427253 L818.357105,290.470394 C818.39694,290.529114 818.431884,290.626981 818.222222,290.626981 L818.122383,290.726845 C817.822866,291.126302 817.42351,291.525758 816.924316,291.82535 C816.764573,291.985133 816.604831,292.144916 816.445089,292.355829 L816.325282,292.524399 C816.125604,292.823992 815.925926,293.02372 815.626409,293.223448 C815.426731,293.323312 815.127214,293.423176 814.827697,293.52304 C814.927536,293.52304 815.027375,293.622904 815.227053,293.722768 C815.060655,293.805989 814.963589,293.819859 814.878079,293.82217 L814.827697,293.822633 C814.727858,293.922497 814.727858,294.022361 814.628019,294.122225 C814.428341,294.321953 814.328502,294.521681 814.128824,294.721409 C813.929147,294.921138 813.729469,295.120866 813.429952,295.320594 C813.429952,295.420458 813.529791,295.620186 813.230274,295.620186 C813.130435,295.620186 813.130435,295.819915 813.030596,295.919779 L813.024206,295.954931 C813.014622,295.983692 812.99066,296.019643 812.930757,296.019643 C812.63124,296.119507 812.63124,296.419099 812.431562,296.518963 L812.231884,296.718691 C812.132045,296.91842 812.132045,297.018284 812.032206,297.118148 C811.932367,297.317876 811.832528,297.41774 811.732689,297.617468 C811.732689,297.717333 811.433172,297.817197 811.333333,297.917061 C811.233494,298.016925 811.233494,298.216653 811.133655,298.216653 C811.033816,298.316517 810.834138,298.516245 810.634461,298.316517 C810.7343,298.216653 810.933977,298.216653 810.834138,297.917061 C810.834138,297.817197 811.033816,297.617468 811.133655,297.517604 C811.233494,297.41774 811.233494,297.317876 811.233494,297.218012 C811.433172,297.218012 811.732689,296.718691 811.732689,296.419099 L811.932367,296.419099 C811.932367,296.319235 811.832528,296.319235 811.832528,296.219371 C811.932367,296.219371 812.032206,296.219371 812.231884,296.119507 C812.231884,296.019643 812.132045,296.019643 812.132045,295.819915 C812.331723,295.72005 812.63124,295.520322 812.830918,295.420458 C812.930757,295.420458 812.930757,295.320594 813.030596,295.22073 C813.030596,295.120866 813.030596,295.021002 813.130435,294.921138 C813.230274,294.721409 813.330113,294.621545 813.529791,294.421817 L813.330113,294.421817 C813.330113,294.421817 813.330113,294.421817 813.330113,294.321953 C813.429952,294.321953 813.62963,294.222089 813.729469,294.222089 L813.729469,294.122225 L813.529791,294.122225 L813.62963,294.022361 L813.827762,294.03327 C813.975817,294.036543 814.098105,293.999315 814.028986,293.722768 L814.128824,293.622904 C814.053945,293.622904 814.035225,293.566731 813.988426,293.538644 L813.929147,293.52304 C813.929147,293.52304 813.929147,293.52304 813.929147,293.423176 C814.128824,293.423176 814.228663,293.323312 814.428341,293.323312 C814.628019,293.223448 814.727858,293.123584 814.52818,292.923856 L814.927536,292.923856 L815.027375,292.699161 C815.052335,292.649229 815.077295,292.624263 815.127214,292.624263 C815.227053,292.524399 815.127214,292.324671 815.426731,292.424535 L815.468264,292.389383 C815.506602,292.360622 815.566506,292.324671 815.626409,292.324671 L815.826087,292.124943 C815.766184,292.124943 815.70628,292.088992 815.667942,292.060231 L815.626409,292.025079 L816.025765,292.025079 C815.726248,291.625622 816.325282,291.625622 816.225443,291.32603 C816.325282,291.425894 816.52496,291.525758 816.52496,291.32603 C816.52496,291.04641 816.671723,290.913591 816.862515,290.790559 L817.123994,290.626981 C817.323671,290.527117 817.42351,290.327389 817.523349,290.127661 C817.623188,289.927933 817.822866,289.828068 817.922705,289.62834 C818.010064,289.366197 818.326741,289.333429 818.538314,289.195531 L818.647462,289.106828 C818.677044,289.084636 818.721417,289.062444 818.721417,289.12902 C819.020934,289.12902 818.921095,289.029156 818.821256,288.929292 C819.020934,288.729563 819.320451,288.629699 819.520129,288.429971 C819.679871,288.190297 819.967407,287.950623 820.178267,287.710949 L820.318841,287.531194 C820.387847,287.427659 820.480701,287.33605 820.589161,287.252246 L820.618357,287.330467 L820.522353,287.058038 C820.276933,286.310633 820.119163,285.422952 820.119163,284.535271 C820.119163,283.53663 820.318841,282.637853 820.618357,281.83894 C820.917874,281.040027 821.417069,280.241115 822.016103,279.64193 C822.615137,279.042745 823.31401,278.543425 824.112721,278.243833 C824.911433,277.94424 825.809984,277.744512 826.808374,277.744512 Z M843.481481,277.744512 C844.479871,277.744512 845.378422,277.94424 846.177134,278.243833 C846.975845,278.543425 847.674718,279.042745 848.273752,279.64193 C848.872786,280.241115 849.371981,280.940163 849.671498,281.83894 C849.971014,282.637853 850.170692,283.636494 850.170692,284.535271 C850.170692,285.434048 849.971014,286.432689 849.671498,287.331466 C849.371981,288.130379 848.872786,288.929292 848.273752,289.528476 C847.674718,290.127661 846.975845,290.626981 846.177134,290.926574 C845.378422,291.226166 844.479871,291.425894 843.481481,291.425894 C842.483092,291.425894 841.584541,291.226166 840.785829,290.926574 C839.987118,290.626981 839.288245,290.127661 838.689211,289.528476 C838.090177,288.929292 837.690821,288.230243 837.291465,287.331466 C836.991948,286.432689 836.792271,285.533912 836.792271,284.535271 C836.792271,283.53663 836.991948,282.637853 837.291465,281.83894 C837.590982,281.040027 838.090177,280.241115 838.689211,279.64193 C839.288245,279.042745 839.987118,278.543425 840.785829,278.243833 C841.584541,277.94424 842.483092,277.744512 843.481481,277.744512 Z M807.838969,277.744512 C808.837359,277.744512 809.73591,277.94424 810.534622,278.243833 C811.333333,278.543425 812.032206,279.042745 812.63124,279.64193 C813.230274,280.241115 813.729469,280.940163 814.028986,281.83894 C814.328502,282.637853 814.52818,283.636494 814.52818,284.535271 C814.52818,285.434048 814.328502,286.432689 814.028986,287.331466 C813.729469,288.130379 813.230274,288.929292 812.63124,289.528476 C812.032206,290.127661 811.333333,290.626981 810.534622,290.926574 C809.73591,291.226166 808.837359,291.425894 807.838969,291.425894 C806.84058,291.425894 805.942029,291.226166 805.143317,290.926574 C804.344605,290.626981 803.645733,290.127661 803.046699,289.528476 C802.447665,288.929292 801.94847,288.230243 801.648953,287.331466 C801.249597,286.432689 801.149758,285.533912 801.149758,284.535271 C801.149758,283.53663 801.349436,282.637853 801.648953,281.83894 C801.94847,281.040027 802.447665,280.241115 803.046699,279.64193 C803.645733,279.042745 804.344605,278.543425 805.143317,278.243833 C805.942029,277.94424 806.84058,277.744512 807.838969,277.744512 Z M787.371981,278.044104 L791.465378,278.044104 L791.768593,278.047803 C791.975666,278.0552 792.197531,278.077392 792.463768,278.143968 C792.763285,278.243833 793.162641,278.343697 793.462158,278.443561 C793.861514,278.543425 794.161031,278.743153 794.460548,279.042745 C794.760064,279.342338 794.959742,279.64193 795.15942,280.041386 C795.359098,280.440843 795.458937,280.940163 795.458937,281.439484 C795.458937,282.038668 795.359098,282.537989 795.15942,282.937445 C794.959742,283.336902 794.660225,283.636494 794.360709,283.936086 C794.061192,284.235679 793.661836,284.335543 793.26248,284.535271 L792.789643,284.655108 C792.559614,284.715026 792.343961,284.774945 792.164251,284.834863 L795.958132,291.126302 L794.560386,291.126302 L790.866345,284.934727 L788.570048,284.934727 L788.570048,291.126302 L787.371981,291.126302 L787.371981,278.044104 Z M776.389694,278.044104 L781.880837,291.026438 L780.483092,291.026438 L779.085346,287.531194 L772.196457,287.531194 L770.698873,291.026438 L769.400966,291.026438 L775.091787,278.044104 L776.389694,278.044104 Z M757.619968,278.044104 C758.718196,278.044104 759.716586,278.143968 760.515298,278.443561 C761.31401,278.743153 761.913043,279.042745 762.512077,279.542066 C763.011272,279.941522 763.410628,280.440843 763.710145,280.940163 C764.009662,281.439484 764.20934,281.938804 764.409018,282.438125 C764.508857,282.937445 764.608696,283.336902 764.708535,283.736358 C764.708535,284.135815 764.808374,284.435407 764.808374,284.535271 L764.806814,284.646058 C764.802134,284.791173 764.783414,285.034592 764.708535,285.334184 C764.708535,285.73364 764.608696,286.133097 764.409018,286.632417 C764.309179,287.131738 764.009662,287.631058 763.710145,288.130379 C763.410628,288.629699 763.011272,289.12902 762.512077,289.528476 C762.012882,289.927933 761.31401,290.327389 760.515298,290.626981 C759.716586,290.926574 758.818035,291.026438 757.619968,291.026438 L753.626409,291.026438 L753.626409,278.044104 L757.619968,278.044104 Z M807.838969,278.843017 C807.040258,278.843017 806.241546,278.942881 805.542673,279.242474 C804.8438,279.542066 804.244767,279.941522 803.845411,280.440843 C803.346216,280.940163 803.046699,281.539348 802.747182,282.238397 C802.447665,283.037309 802.347826,283.736358 802.347826,284.535271 C802.347826,285.334184 802.447665,286.133097 802.747182,286.832145 C803.046699,287.531194 803.346216,288.130379 803.845411,288.629699 C804.344605,289.12902 804.943639,289.528476 805.542673,289.828068 C806.241546,290.127661 806.940419,290.227525 807.838969,290.227525 C808.637681,290.227525 809.436393,290.127661 810.135266,289.828068 C810.834138,289.528476 811.433172,289.12902 811.832528,288.629699 C812.331723,288.130379 812.63124,287.531194 812.930757,286.832145 C813.230274,286.133097 813.330113,285.334184 813.330113,284.535271 C813.330113,283.736358 813.230274,282.937445 812.930757,282.238397 C812.63124,281.539348 812.331723,280.940163 811.832528,280.440843 C811.333333,279.941522 810.7343,279.542066 810.135266,279.242474 C809.436393,278.942881 808.73752,278.843017 807.838969,278.843017 Z M843.481481,278.843017 C842.68277,278.843017 841.884058,278.942881 841.185185,279.242474 C840.486312,279.542066 839.887279,279.941522 839.487923,280.440843 C838.988728,280.940163 838.689211,281.539348 838.389694,282.238397 C838.090177,283.037309 837.990338,283.736358 837.990338,284.535271 C837.990338,285.334184 838.090177,286.133097 838.389694,286.832145 C838.689211,287.531194 838.988728,288.130379 839.487923,288.629699 C839.987118,289.12902 840.586151,289.528476 841.185185,289.828068 C841.884058,290.127661 842.582931,290.227525 843.481481,290.227525 C844.280193,290.227525 845.078905,290.127661 845.777778,289.828068 C846.476651,289.528476 847.075684,289.12902 847.47504,288.629699 C847.974235,288.130379 848.273752,287.531194 848.573269,286.832145 C848.872786,286.133097 848.972625,285.334184 848.972625,284.535271 C848.972625,283.736358 848.872786,282.937445 848.573269,282.238397 C848.273752,281.539348 847.974235,280.940163 847.47504,280.440843 C846.975845,279.941522 846.376812,279.542066 845.777778,279.242474 C845.078905,278.942881 844.380032,278.843017 843.481481,278.843017 Z M824.112721,286.832145 L823.83498,286.835433 C823.501362,286.84694 823.147611,286.898721 822.914654,287.131738 C822.914654,287.784183 822.740712,287.82768 822.555174,287.749386 L822.515298,287.730922 L822.21345,287.937779 C822.380585,288.225839 822.574577,288.489265 822.814815,288.729563 C823.31401,289.228884 823.913043,289.62834 824.512077,289.927933 L824.719037,290.009616 C824.796021,289.808297 824.853727,289.601774 824.911433,289.428612 C825.000179,289.251076 825.088925,288.994635 824.96731,288.729426 L824.911433,288.629699 L824.911433,288.529835 C825.111111,288.230243 825.011272,287.930651 825.011272,287.631058 C825.011272,287.231602 824.512077,286.832145 824.112721,286.832145 Z M757.320451,279.14261 L754.824477,279.14261 L754.824477,289.927933 L757.320451,289.927933 C758.219002,289.927933 759.017713,289.828068 759.716586,289.62834 C760.415459,289.428612 761.114332,289.12902 761.713366,288.629699 C762.312399,288.230243 762.711755,287.631058 763.011272,286.932009 C763.310789,286.232961 763.510467,285.434048 763.510467,284.535271 C763.510467,283.636494 763.310789,282.837581 763.011272,282.138533 C762.711755,281.439484 762.21256,280.940163 761.713366,280.440843 C761.114332,280.041386 760.515298,279.64193 759.716586,279.442202 C758.917874,279.242474 758.119163,279.14261 757.320451,279.14261 Z M775.689823,279.342338 L772.695652,286.432689 L778.68599,286.432689 L775.689823,279.342338 Z M791.391561,279.142883 L788.570048,279.14261 L788.570048,283.736358 L791.165862,283.736358 C791.764895,283.736358 792.363929,283.636494 792.763285,283.53663 C793.162641,283.336902 793.462158,283.137174 793.661836,282.937445 C793.861514,282.737717 794.061192,282.438125 794.161031,282.138533 C794.22759,281.938804 794.249776,281.78346 794.257172,281.642911 L794.26087,281.439484 C794.26087,281.279701 794.26087,281.056006 794.209752,280.870658 L794.161031,280.740435 C794.061192,280.440843 793.961353,280.241115 793.661836,279.941522 C793.462158,279.741794 793.162641,279.542066 792.763285,279.342338 C792.408302,279.164802 791.974434,279.145075 791.391561,279.142883 Z M802.94686,140.531236 L802.747182,201.947659 L803.174772,201.953773 C803.886452,201.974153 804.590856,202.045485 805.251597,202.167767 L805.642512,202.247251 L821.31723,158.806366 L822.415459,159.205823 L806.740741,202.446979 C808.283707,202.810121 809.661649,203.42086 810.94958,204.204167 L811.333333,204.444261 L830.10306,187.567228 L830.901771,188.466005 L812.331723,205.243174 C813.704509,206.341679 814.90951,207.691925 815.869824,209.14007 L816.125604,209.53733 L832.299517,205.542766 L832.599034,206.741135 L816.724638,210.635835 C817.754227,212.695533 818.345071,214.930772 818.414905,217.176983 L818.419903,217.521465 L818.717426,217.391898 C819.015254,217.255176 819.315398,217.097292 819.617181,216.916305 L819.932981,216.716792 C820.233366,216.480203 825.513361,212.460888 832.299517,216.727546 L832.390876,216.797968 C832.995811,217.233527 836.473862,219.415653 840.885431,217.897182 L840.885668,156.509492 L834.795491,156.509492 L834.795491,149.618869 L872.334944,149.618869 L872.334944,156.509492 L866.144928,156.509492 L866.145676,216.667889 C866.624703,216.435745 867.103731,216.149743 867.582758,215.852968 L867.942029,215.629041 C867.942029,215.629041 873.433172,210.436107 880.821256,215.928633 L880.853006,215.955792 C881.356379,216.355992 886.902624,219.990752 893.201288,215.629041 L893.800322,216.527817 C891.304348,218.225507 888.908213,218.824692 886.811594,218.824692 C882.917874,218.824692 880.222222,216.82741 880.122383,216.82741 C873.533011,211.834205 868.640902,216.427953 868.640902,216.427953 C867.80891,217.075221 866.976919,217.551253 866.144928,217.856051 L866.145311,223.640678 C866.593556,223.43073 867.046908,223.174074 867.501282,222.86308 L867.853439,222.609296 C868.133843,222.356974 873.625071,217.569257 880.821256,222.91912 L880.853006,222.946279 C881.356379,223.34648 886.902624,226.981239 893.201288,222.619528 L893.900161,223.618169 C886.711755,228.611374 880.222222,224.017625 880.122383,223.917761 C873.533011,219.02442 868.84058,223.318576 868.640902,223.518305 C863.149758,227.612733 857.658615,224.61681 857.658615,224.61681 C849.771337,219.423876 844.879227,224.317217 844.879227,224.317217 L844.779388,224.417082 C837.890499,229.410287 831.700483,224.916402 831.700483,224.916402 C825.410628,221.021702 820.917874,224.716674 820.718196,224.916402 C814.328502,229.110694 808.238325,223.618169 808.138486,223.618169 C802.847021,218.924556 796.756844,223.41844 796.557166,223.618169 C789.36876,228.611374 782.879227,224.017625 782.779388,223.917761 C776.190016,219.02442 771.497585,223.318576 771.297907,223.518305 C768.535301,225.57822 765.772695,225.843484 763.709337,225.598494 L763.70987,231.466635 C765.429808,231.688718 767.818495,231.573314 770.231066,229.902041 L770.510444,229.699647 C770.790848,229.447325 776.282075,224.659609 783.478261,230.009471 L783.51001,230.03663 C784.005757,230.430767 789.392718,233.962189 795.572523,229.90267 L796.194638,229.47685 C797.636545,228.528042 803.460465,225.20568 808.699481,229.508987 L808.937198,229.709879 C809.133756,229.906486 814.264226,234.457642 819.757484,231.075355 L820.03282,230.897494 C820.328722,230.664437 825.456697,226.760727 832.096516,230.722701 L832.399356,230.908248 C832.698873,231.107976 837.990338,234.902812 844.080515,230.508792 L844.243234,230.358606 C845.314329,229.422839 850.616027,225.570775 858.357488,230.608656 L858.626006,230.738351 C859.688019,231.221494 863.662427,232.714522 867.695083,229.888352 L867.953082,229.699647 C868.224956,229.450689 873.4846,224.786475 880.630376,229.800849 L880.921095,230.009471 C881.120773,230.209199 886.811594,234.203764 893.301127,229.709879 L894,230.70852 C886.811594,235.701725 880.322061,231.107976 880.222222,231.008112 C873.63285,226.014907 868.84058,230.608656 868.740741,230.608656 C867.868347,231.259149 866.995954,231.730678 866.14558,232.063689 L866.144928,257.372235 L872.334944,257.372235 L872.334944,264.362722 L834.795491,264.362722 L834.795491,257.372235 L840.885668,257.372235 L840.885938,233.485213 C839.838903,233.78274 838.834351,233.904171 837.890499,233.904171 C834.196457,233.904171 831.700483,232.006753 831.600644,232.006753 C825.310789,228.112053 820.818035,231.807025 820.618357,232.006753 C814.228663,236.201046 808.138486,230.70852 808.038647,230.70852 C802.747182,226.014907 796.657005,230.508792 796.457327,230.70852 C789.268921,235.701725 782.779388,231.107976 782.679549,231.008112 C776.090177,226.114771 771.397746,230.408928 771.198068,230.608656 C768.398356,232.686384 765.680341,232.966338 763.709138,232.705164 L763.710145,256.972779 L769.900161,256.972779 L769.900161,263.863402 L732.360709,263.863402 L732.360709,256.972779 L738.450886,256.972779 L738.448998,233.634565 C736.07107,233.172254 734.457327,232.001522 734.457327,231.906889 C727.867955,227.912325 723.574879,231.707161 723.375201,231.906889 C720.879227,233.804307 718.582931,234.403492 716.486312,234.403492 C711.694042,234.403492 708.099839,231.008112 708.099839,230.908248 L708.898551,230.109335 L709.16572,230.3556 C710.4647,231.495374 716.135996,235.828687 722.410845,231.208686 L722.688493,230.997184 C722.963539,230.753112 727.879365,226.545614 735.056361,231.008112 C735.147561,231.008112 736.405102,232.008084 738.448473,232.485605 L738.449753,226.566564 C735.963463,226.082323 734.357488,224.916402 734.357488,224.916402 C727.768116,220.921838 723.574879,224.716674 723.375201,224.916402 C720.879227,226.713956 718.582931,227.31314 716.486312,227.31314 C711.594203,227.31314 708.099839,223.917761 708,223.817897 L708.798712,222.91912 L708.927377,223.040081 C709.896179,223.919523 715.768443,228.736539 722.211555,224.017244 L722.489053,223.806968 C722.76528,223.566486 727.630423,219.478291 734.545683,223.626607 L734.856683,223.817897 C735.1562,224.017625 740.447665,227.812461 746.537842,223.41844 L746.654353,223.30819 C747.07204,222.928427 748.400223,221.851342 750.431562,221.321294 C752.727858,220.72211 756.322061,220.622246 760.814815,223.518305 L761.083332,223.648 C762.145346,224.131143 766.119754,225.62417 770.15241,222.798001 L770.424592,222.596819 C770.837745,222.231104 776.278186,217.640589 783.378422,222.91912 L783.410172,222.946279 C783.905918,223.340416 789.292879,226.871838 795.472684,222.812319 L796.094799,222.386499 C797.536706,221.43769 803.360626,218.115329 808.599642,222.418636 L808.837359,222.619528 C809.033917,222.816135 814.164387,227.36729 819.657645,223.985004 L819.932981,223.807143 C820.228883,223.574086 825.356858,219.670376 831.996677,223.63235 L832.347961,223.850781 C832.85255,224.193338 836.390248,226.531701 840.885795,225.033906 L840.886029,219.113532 C835.691548,220.59897 831.796661,217.722525 831.700483,217.626323 C825.410628,213.731623 820.917874,217.426594 820.718196,217.626323 C814.328502,221.820615 808.238325,216.328089 808.138486,216.328089 C802.847021,211.634476 796.756844,216.128361 796.557166,216.328089 C789.36876,221.321294 782.879227,216.727546 782.779388,216.627682 C776.190016,211.734341 771.497585,216.028497 771.297907,216.228225 C765.806763,220.322653 760.31562,217.32673 760.31562,217.32673 C752.644431,212.276069 747.995427,216.577646 747.562734,217.000898 L747.436393,217.127002 C740.547504,222.120207 734.357488,217.626323 734.357488,217.626323 C727.768116,213.631758 723.574879,217.426594 723.375201,217.626323 C720.879227,219.623605 718.582931,220.222789 716.486312,220.222789 C711.594203,220.222789 708.099839,216.82741 708,216.727546 L708.798712,215.828769 L708.927377,215.949729 C709.896179,216.829172 715.768443,221.646188 722.211555,216.926892 L722.489053,216.716617 C722.76528,216.476135 727.630423,212.38794 734.545683,216.536256 L734.856683,216.727546 C735.004678,216.826234 736.371446,217.802659 738.451129,218.235245 L738.450886,156.509492 L732.360709,156.509492 L732.360709,149.618869 L769.900161,149.618869 L769.900161,156.509492 L763.710145,156.509492 L763.71,217.300554 C765.451456,217.535078 767.778988,217.360994 770.128226,215.724547 L770.424592,215.506467 C770.837745,215.140752 776.278186,210.550238 783.378422,215.828769 L783.466155,215.898319 C783.824458,216.159999 785.193451,217.019741 787.173572,217.431618 C787.184921,215.225944 787.620454,213.10824 788.479357,211.233515 L788.669887,210.835564 L772.495974,206.940864 L772.795491,205.742494 L789.169082,209.737059 C789.992754,208.272385 791.068103,206.975539 792.318227,205.84652 L792.663446,205.542766 L772.995169,187.267636 L773.793881,186.368859 L793.561997,204.743853 C794.610306,204.044805 795.735054,203.422214 796.936242,202.942984 L797.455717,202.746571 L780.882448,158.40691 L781.980676,158.007454 L798.553945,202.446979 C799.352657,202.287196 800.151369,202.127414 800.950081,202.018762 L801.549114,201.947659 L801.748792,140.531236 L802.94686,140.531236 Z M871.536232,258.271012 L835.694042,258.271012 L835.694042,263.56381 L871.536232,263.56381 L871.536232,258.271012 Z M769.101449,257.771692 L733.259259,257.771692 L733.259259,263.064489 L769.101449,263.064489 L769.101449,257.771692 Z M848.073335,229.704938 L848.074074,250.68134 L847.275362,250.68134 L847.274602,229.988904 C845.928365,230.541598 845.139064,231.25549 845.000931,231.386456 L844.879227,231.507433 C843.789806,232.292013 842.719406,232.848296 841.684629,233.226103 L841.68438,257.372235 L865.346216,257.372235 L865.346744,232.339155 C863.199013,232.981495 861.243336,232.790493 859.855418,232.456258 L859.855072,250.68134 L859.056361,250.68134 L859.055469,232.231795 C858.238036,231.968817 857.758454,231.707161 857.758454,231.707161 C856.402095,230.814143 855.134311,230.219406 853.964751,229.846769 L853.964573,250.68134 L853.165862,250.68134 L853.166063,229.622167 C851.113523,229.122286 849.396335,229.304745 848.073335,229.704938 Z M751.529772,222.392836 L751.529791,250.281884 L750.731079,250.281884 L750.730907,222.584859 C748.787347,223.147862 747.666544,224.191476 747.546915,224.30679 L747.436393,224.417082 C746.830521,224.85623 746.230055,225.221995 745.63873,225.523888 L745.639291,250.281884 L744.84058,250.281884 L744.840825,225.895837 C742.787719,226.763091 740.869313,226.889822 739.249368,226.692981 L739.249368,256.972779 L762.911433,256.972779 L762.911072,225.474042 C761.325032,225.167537 760.31562,224.61681 760.31562,224.61681 C759.299363,223.947713 758.332831,223.446065 757.420082,223.079824 L757.42029,250.18202 L756.621578,250.18202 L756.621691,222.78867 C754.626191,222.134387 752.913138,222.126787 751.529772,222.392836 Z M865.346216,156.509492 L841.68438,156.509492 L841.684851,224.730204 C842.431075,224.411156 843.199302,223.982197 843.980676,223.41844 L844.050392,223.351322 C844.372058,223.050478 845.503693,222.090051 847.273739,221.499654 L847.275362,161.302969 L848.074074,161.302969 L848.073265,221.271487 C849.394157,220.95444 851.11478,220.814569 853.165972,221.284246 L853.165862,161.302969 L853.964573,161.302969 L853.964923,221.494045 C855.279193,221.88312 856.715485,222.524216 858.257649,223.518305 L858.455357,223.615306 C858.592558,223.679614 858.795779,223.769102 859.055609,223.866199 L859.056361,161.302969 L859.855072,161.302969 L859.854658,224.12493 C861.170264,224.488649 863.16604,224.744906 865.346791,223.969104 L865.346216,156.509492 Z M762.911565,156.509492 L739.249597,156.509492 L739.249647,218.367504 C740.845638,218.564474 742.769809,218.399014 744.840981,217.361968 L744.84058,160.504056 L745.639291,160.504056 L745.640078,216.921687 C745.937038,216.742923 746.236462,216.545533 746.537842,216.328089 L746.587583,216.280012 L746.773246,216.115518 C747.324579,215.65023 748.69538,214.663235 750.730933,214.174522 L750.731079,160.504056 L751.529791,160.504056 L751.530094,214.015818 C752.966687,213.789088 754.678361,213.82945 756.622056,214.420797 L756.621578,160.504056 L757.42029,160.504056 L757.420828,214.690742 C758.490033,215.08798 759.623537,215.65271 760.814815,216.427953 L761.06317,216.548438 C761.398545,216.702284 762.048063,216.968058 762.911565,217.158746 L762.911565,156.509492 Z M802.647343,203.046164 L802.456451,203.05655 L802.021952,203.110876 C801.945275,203.120463 801.867002,203.129251 801.787929,203.135642 L801.549114,203.146028 L801.239214,203.157213 C800.8143,203.185973 800.351047,203.265865 799.951691,203.345756 C799.851852,203.345756 799.652174,203.44562 799.552335,203.44562 C799.402576,203.44562 799.308977,203.501794 799.187299,203.52988 L799.05314,203.545484 L798.895524,203.637489 C798.730512,203.722096 798.544701,203.785898 798.35057,203.841378 L797.954911,203.944941 L797.880032,203.960544 L797.730274,204.029201 C797.705314,204.038563 797.680354,204.044805 797.655395,204.044805 C792.26409,206.005773 788.412649,211.143508 788.274379,217.189642 L788.270531,217.526458 L787.69864,217.527419 C789.82277,217.860918 792.546927,217.634698 795.44707,215.738753 L796.094799,215.296148 C797.536706,214.347339 803.360626,211.024978 808.599642,215.328285 L809.059575,215.72532 C809.937971,216.45945 813.251059,218.886383 817.223283,217.914907 L817.223833,217.726187 C817.223833,215.385622 816.697338,213.220599 815.726614,211.313405 L815.52657,210.935428 L815.406763,210.696553 C815.286957,210.459276 815.16715,210.229189 815.047343,210.027863 L814.714907,209.49483 C813.922706,208.264081 812.924996,207.179387 811.780775,206.299763 L811.433172,206.042087 L811.192935,205.876687 L810.612475,205.464601 L810.434783,205.343038 L810.001873,205.084131 C808.990473,204.497275 807.965651,204.031243 806.833458,203.686034 L806.341385,203.545484 L805.143317,203.245892 L804.653707,203.186772 C803.989179,203.110077 803.286312,203.046164 802.647343,203.046164 Z M769.101449,150.417782 L733.259259,150.417782 L733.259259,155.710579 L769.101449,155.710579 L769.101449,150.417782 Z M871.536232,150.417782 L835.694042,150.417782 L835.694042,155.710579 L871.536232,155.710579 L871.536232,150.417782 Z M808.038647,90 C808.731719,90 809.228414,90.4910654 809.236612,91.1810027 L809.336554,91.1983692 C808.414411,95.6257715 800.867779,99.1444439 794.99462,101.241462 C797.27678,100.940061 799.598365,100.785323 801.94847,100.785323 C802.215296,100.785323 802.481849,100.787337 802.748109,100.791353 L802.747182,100.785323 L802.997745,100.797233 C803.641213,100.80847 804.281057,100.832817 804.918913,100.868631 L806.171312,100.895436 C811.504949,100.977334 821.555919,100.721688 825.1695,97.7913716 C824.660585,97.7254424 824.21256,97.1955814 824.21256,96.5910307 C824.21256,95.891982 824.711755,95.3926615 825.410628,95.3926615 C826.109501,95.3926615 826.608696,95.891982 826.608696,96.5910307 C826.608696,96.8057739 826.561588,97.0016691 826.476055,97.1700315 L826.508857,97.1902154 C824.390329,100.4571 816.496466,101.303979 810.348599,101.456361 C815.793172,102.329802 821.029732,104.041387 825.888866,106.486139 L826.714854,106.838395 C830.804622,108.551301 838.024212,111.117694 841.552208,109.786844 C841.12647,109.615301 840.785829,109.201732 840.785829,108.674587 C840.785829,107.975538 841.285024,107.476218 841.983897,107.476218 C842.68277,107.476218 843.181965,107.975538 843.181965,108.674587 C843.181965,109.069722 843.02247,109.401044 842.757572,109.614445 L842.882448,109.773092 C841.884058,110.372277 840.586151,110.671869 839.088567,110.671869 C836.234366,110.671869 832.654866,109.651662 829.635198,108.561834 C834.539287,111.538892 838.97369,115.301525 842.73853,119.727132 L843.297485,120.206367 C845.51683,122.06821 849.538923,124.965973 853.201876,125.096836 C853.051238,124.89632 852.966184,124.641801 852.966184,124.353251 C852.966184,123.654202 853.465378,123.154882 854.164251,123.154882 C854.863124,123.154882 855.362319,123.654202 855.362319,124.353251 C855.362319,124.990287 854.947762,125.46146 854.345318,125.540041 L854.363929,125.651484 C854.064412,125.55162 853.764895,125.651484 853.465378,125.651484 C850.400256,125.651484 847.09508,123.760581 844.684934,122.002696 L844.420966,121.808714 L844.939567,122.493987 C846.120949,124.082632 847.220349,125.744395 848.230482,127.474649 L848.273752,127.449038 L848.813685,128.229754 C850.170934,130.152635 853.900855,135.046526 857.945489,136.283127 C857.891593,136.08515 857.892724,135.86688 857.958132,135.637895 C858.15781,134.938846 858.756844,134.53939 859.455717,134.739118 C860.154589,134.938846 860.553945,135.538031 860.354267,136.237079 C860.154589,136.936128 859.555556,137.335584 858.856683,137.135856 L858.730337,137.093909 C853.258047,136.253206 848.312377,128.673606 847.810542,127.813276 L847.786734,127.827127 C848.817826,130.501149 849.567099,134.321917 847.47504,137.635177 C847.264347,137.943713 846.908646,138.134497 846.476651,138.134497 C845.777778,138.134497 845.278583,137.535313 845.278583,136.936128 C845.278583,136.237079 845.777778,135.737759 846.476651,135.737759 C846.941683,135.737759 847.318306,135.958839 847.518277,136.312735 C849.738634,131.215582 845.778113,125.147597 845.585339,124.770178 C843.393937,121.525502 840.862865,118.566202 838.057515,115.928219 C840.269205,118.864624 842.544969,123.06988 842.585728,127.98484 L842.582931,128.447679 C842.582931,128.447679 842.083736,134.040069 838.289855,134.040069 L838.288857,133.948194 L838.268497,133.950693 C837.63382,133.969231 837.191626,133.399764 837.191626,132.741836 C837.191626,132.042787 837.690821,131.543467 838.389694,131.543467 C839.088567,131.543467 839.587762,132.042787 839.587762,132.741836 C839.587762,132.896313 839.563384,133.041037 839.517862,133.172775 C841.62887,132.162568 841.966115,128.64994 841.983184,128.456036 C842.060971,121.123773 837.021014,115.28775 834.672718,113.007139 C830.457416,109.666231 825.750461,106.984796 820.726474,105.061579 L821.241427,105.350473 C826.00528,108.074572 831.880876,112.890541 832,120.158959 C832,121.910422 831.336507,125.084012 828.624208,125.245609 L828.405797,125.252028 C827.706924,125.252028 827.207729,124.752708 827.207729,124.053659 C827.207729,123.35461 827.706924,122.85529 828.405797,122.85529 C829.10467,122.85529 829.603865,123.35461 829.603865,124.053659 C829.603865,124.14104 829.596065,124.2253 829.58105,124.305855 L829.561558,124.391636 C831.400966,123.458968 831.400966,120.343707 831.400966,120.258823 C831.131943,109.674571 818.217384,104.407616 815.518193,103.372513 C811.165847,102.206008 806.634106,101.59089 802.023476,101.58429 C807.086031,102.375448 813.788591,104.740632 817.723027,111.470782 L817.966642,111.949208 C818.62194,113.287142 820.280604,117.107792 819.120773,119.759502 C818.621578,120.957872 817.623188,121.756784 816.225443,122.156241 C816.225443,122.355969 816.025765,122.355969 815.726248,122.355969 C815.222829,122.355969 814.437367,122.214912 813.903167,121.636441 C813.609415,121.424758 813.429952,121.077421 813.429952,120.658279 C813.429952,119.959231 814.028986,119.45991 814.628019,119.45991 C815.326892,119.45991 815.826087,119.959231 815.826087,120.658279 C815.826087,121.085582 815.639566,121.438259 815.334932,121.647882 C815.762656,121.705326 816.125604,121.65692 816.125604,121.65692 C817.323671,121.257464 818.122383,120.658279 818.621578,119.559774 C819.819646,116.563851 817.223833,111.770374 817.223833,111.770374 C811.863662,102.647789 801.118479,101.797126 797.008907,101.819218 C791.696993,102.322343 786.579988,103.631153 781.798448,105.629644 C782.608366,105.482693 783.537785,105.35523 784.57649,105.279208 L785.093096,105.25593 C788.798605,105.122396 794.360709,105.64235 800.650564,109.074044 L801.020112,109.333656 C802.558459,110.452446 808.210038,114.966026 807.239936,120.258823 C807.147395,120.351387 806.711747,123.103697 804.104339,123.505571 L803.853476,123.536208 C803.784023,123.547686 803.714878,123.554338 803.645733,123.554338 L803.580619,123.552421 L803.446055,123.554338 L803.445735,123.537543 C802.853554,123.436555 802.447665,122.896262 802.447665,122.355969 C802.447665,121.65692 802.94686,121.1576 803.645733,121.1576 C804.344605,121.1576 804.8438,121.65692 804.8438,122.355969 C804.8438,122.47186 804.827336,122.582262 804.797138,122.685809 C806.284741,122.017299 806.541063,120.318971 806.541063,120.158959 C807.58438,114.846189 801.058905,110.074182 800.31815,109.610264 L800.251208,109.573364 C790.33325,104.169539 782.10849,105.865905 779.258634,106.771102 C776.295772,108.197524 773.478021,109.895611 770.84262,111.835158 C771.17451,111.709197 771.52632,111.58663 771.89694,111.470782 C774.721653,110.593926 779.256872,109.907175 784.760915,112.007073 L785.235944,112.193496 C786.028357,112.522922 793.362319,115.989633 793.362319,122.056377 L793.353439,122.320035 C793.263659,123.6902 792.478479,125.779635 790.336258,125.941119 L790.067633,125.951077 C789.36876,125.951077 788.869565,125.451756 788.869565,124.752708 C788.869565,124.053659 789.36876,123.554338 790.067633,123.554338 C790.766506,123.554338 791.2657,124.053659 791.2657,124.752708 C791.2657,124.861934 791.253513,124.966284 791.230281,125.064615 C792.630592,124.276459 792.763285,122.137785 792.763285,122.056377 C792.763285,116.164395 784.975845,112.769015 784.876006,112.769015 C776.719769,109.505699 770.618381,112.408482 768.264635,113.857876 C765.032858,116.55907 762.122857,119.645066 759.612952,123.052063 C761.972231,121.159227 765.792206,119.03772 770.952183,119.237329 L771.397746,119.260182 C771.495863,119.260182 779.115203,120.321134 779.283146,125.950167 L779.285024,126.250669 C779.285024,126.550261 778.785829,131.044146 775.690821,131.044146 L775.590982,131.044146 C774.89211,131.044146 774.392915,130.544825 774.392915,129.845777 C774.392915,129.146728 774.89211,128.647408 775.590982,128.647408 C776.289855,128.647408 776.78905,129.146728 776.78905,129.845777 C776.78905,129.96426 776.771841,130.077005 776.740341,130.182554 C778.40022,129.278045 778.68599,126.335146 778.68599,126.250669 C778.785829,120.858008 771.397746,119.859367 771.397746,119.859367 C764.181816,119.378183 759.541374,123.727255 757.941782,125.458903 C756.162536,128.181022 754.628501,131.083993 753.375027,134.138574 C755.324136,131.474178 758.553892,128.583199 763.310789,128.747272 L763.428377,128.764968 C764.139887,128.895274 767.786179,129.811041 767.603865,133.640613 L767.575494,133.874585 C767.414935,134.943719 766.746838,136.675754 764.851049,136.909682 L764.626815,136.929903 C764.587109,136.933998 764.547983,136.936128 764.508857,136.936128 L764.409018,136.936128 L764.409018,136.931135 L764.396684,136.93035 C763.837284,136.872933 763.310789,136.393117 763.310789,135.737759 C763.310789,135.03871 763.809984,134.53939 764.508857,134.53939 C765.207729,134.53939 765.706924,135.03871 765.706924,135.737759 C765.706924,135.838839 765.694399,135.935744 765.671161,136.027567 C766.881842,135.335108 767.004831,133.718988 767.004831,133.640613 C767.10467,129.945641 763.410628,129.346456 763.21095,129.346456 C756.952573,129.19189 753.444693,134.778935 752.178304,137.359749 C751.508098,139.360131 750.956443,141.418768 750.531401,143.527159 L749.732689,143.327431 C750.335428,140.349153 751.185604,137.469875 752.259143,134.70911 L752.328502,134.53939 C752.328502,134.444942 755.72198,124.614122 751.867197,119.239485 C751.698492,119.733528 751.214785,120.059095 750.731079,120.059095 C750.032206,120.158959 749.533011,119.559774 749.533011,118.860726 C749.533011,118.161677 750.032206,117.662356 750.731079,117.662356 C751.173169,117.662356 751.535357,117.86216 751.741829,118.185934 L751.756336,118.202279 C754.770069,121.530468 754.58724,126.782564 753.959378,130.475289 L753.865024,131.008195 C755.295635,128.027907 757.001246,125.200944 758.942745,122.564239 L759.085713,122.275266 C760.441588,119.495261 763.572758,111.967858 761.007767,107.16657 C760.829024,107.555152 760.449525,107.818661 760.049951,107.867477 L759.916264,107.875674 C759.217391,107.975538 758.718196,107.376354 758.718196,106.677305 C758.718196,105.978256 759.217391,105.478936 759.916264,105.478936 C760.38615,105.478936 760.765771,105.749799 760.964093,106.10941 L761.014493,106.07812 C763.969045,110.270517 762.005697,116.827883 760.429104,120.639543 C761.999104,118.699634 763.701229,116.875147 765.520418,115.178043 L765.507246,115.165754 L765.910684,114.728532 C767.565673,112.886299 773.689282,105.589065 772.675709,99.672425 C772.447567,99.9903025 772.072415,100.186138 771.697262,100.186138 C771.098229,100.186138 770.499195,99.5869538 770.499195,98.9877692 C770.499195,98.2887205 770.99839,97.7894 771.697262,97.7894 C772.317583,97.7894 772.780589,98.1827822 772.876836,98.7600469 L773.095008,98.6881769 C774.488817,103.534541 771.029066,109.263592 768.435625,112.647927 C770.990676,110.586994 773.735202,108.759159 776.634305,107.192947 L777.252322,106.785489 C780.87626,104.357151 787.503791,99.2236029 788.55658,93.3600533 C788.386058,93.4470323 788.188176,93.4952436 787.971014,93.4952436 C787.272142,93.5951077 786.772947,92.9959231 786.772947,92.2968743 C786.772947,91.5978256 787.272142,91.0985051 787.971014,91.0985051 C788.669887,91.0985051 789.169082,91.5978256 789.169082,92.2968743 C789.169082,92.3659336 789.16421,92.4330436 789.154755,92.4979155 L789.268921,92.4966026 C788.787229,97.7965457 783.948015,102.51534 780.072898,105.49201 C783.529564,103.932487 787.171277,102.732469 790.944977,101.93442 L791.849473,101.654488 C797.102813,99.9958569 805.959028,96.6295042 808.258522,92.3795508 C808.187089,92.3909292 808.11403,92.3967385 808.038647,92.3967385 C807.339775,92.3967385 806.84058,91.8974179 806.84058,91.1983692 C806.84058,90.4993205 807.339775,90 808.038647,90 Z" transform="translate(-708 -90)"/>
</svg>
